<?xml version="1.0" standalone="no"?>
<!DOCTYPE svg PUBLIC "-//W3C//DTD SVG 20010904//EN"
 "http://www.w3.org/TR/2001/REC-SVG-20010904/DTD/svg10.dtd">
<svg version="1.0" xmlns="http://www.w3.org/2000/svg"
 width="1142.000000pt" height="1142.000000pt" viewBox="0 0 1142.000000 1142.000000"
 preserveAspectRatio="xMidYMid meet">
<metadata>
Created by potrace 1.11, written by Peter Selinger 2001-2013
</metadata>
<g transform="translate(0.000000,1142.000000) scale(0.100000,-0.100000)"
fill="#000000" stroke="none">
<path d="M3465 11396 c-88 -33 -105 -41 -203 -89 -49 -25 -100 -48 -113 -52
-13 -4 -49 -24 -80 -45 -30 -21 -86 -55 -125 -75 -90 -49 -145 -83 -197 -121
-23 -17 -72 -50 -109 -72 -36 -22 -75 -48 -85 -56 -10 -9 -46 -35 -79 -58
-153 -106 -272 -194 -309 -227 -22 -21 -62 -55 -90 -76 -67 -53 -408 -388
-508 -500 -44 -49 -101 -112 -126 -140 -51 -54 -173 -211 -190 -243 -6 -11
-17 -26 -24 -34 -18 -19 -126 -185 -134 -205 -4 -10 -11 -21 -16 -24 -5 -4 -8
-12 -5 -19 2 -7 21 12 41 43 21 31 44 62 51 70 8 8 29 38 47 68 35 58 154 221
185 254 11 11 69 76 129 145 157 179 321 340 630 618 28 25 73 60 101 78 28
18 78 54 112 81 33 26 70 55 82 63 12 8 33 23 45 33 13 9 27 17 31 17 4 0 17
9 28 19 21 20 251 172 374 247 74 47 220 123 327 172 39 18 106 52 150 75 44
24 98 51 120 60 61 25 9 19 -60 -7z"/>
<path d="M6130 11338 c30 -133 78 -328 100 -398 10 -36 36 -146 56 -245 33
-162 38 -200 42 -375 5 -247 -8 -381 -48 -466 l-29 -61 -208 -12 c-203 -12
-328 -28 -427 -57 -27 -8 -63 -14 -80 -14 -16 0 -43 -4 -60 -10 -17 -5 -60
-17 -96 -26 -106 -27 -184 -49 -195 -55 -5 -3 -57 -21 -115 -38 -58 -18 -113
-37 -122 -42 -10 -5 -25 -9 -33 -9 -8 0 -23 -4 -33 -9 -38 -22 -179 -80 -207
-87 -16 -4 -41 -13 -55 -20 -14 -7 -52 -22 -85 -34 -33 -12 -74 -29 -91 -39
-17 -10 -48 -24 -70 -31 -47 -15 -144 -55 -197 -81 -22 -10 -46 -19 -55 -19
-10 0 -26 -7 -36 -15 -11 -8 -26 -15 -33 -15 -8 0 -24 -10 -36 -23 -12 -12
-44 -34 -70 -47 -26 -14 -57 -33 -68 -43 -11 -10 -26 -16 -34 -13 -9 3 -12 0
-8 -10 3 -7 1 -14 -4 -14 -5 0 -48 -27 -94 -60 -46 -33 -87 -60 -91 -60 -3 0
-9 8 -11 18 -4 13 -5 12 -6 -5 0 -12 5 -24 12 -27 6 -4 2 -4 -11 -2 -17 3 -22
1 -18 -10 3 -8 1 -15 -4 -15 -20 -3 -25 -4 -37 -12 -7 -5 -13 -14 -13 -22 0
-14 -45 -65 -57 -65 -3 0 2 11 10 23 15 23 14 24 -16 24 -18 0 -26 -2 -19 -4
14 -5 16 -41 3 -61 -7 -11 -10 -10 -15 3 -8 23 -8 27 4 20 6 -3 10 -1 10 4 0
16 -16 13 -30 -4 -7 -8 -25 -15 -41 -15 -27 0 -39 -13 -21 -23 4 -2 1 -2 -7 0
-8 2 -18 -2 -23 -9 -6 -10 -10 -10 -18 2 -9 13 -11 13 -21 0 -8 -11 -12 -12
-16 -2 -5 12 -83 18 -83 6 0 -3 6 -12 14 -20 16 -16 86 -19 86 -4 0 15 17 12
23 -4 4 -10 1 -13 -7 -10 -12 5 -30 -29 -27 -49 1 -5 -3 -6 -7 -3 -5 3 -19 -2
-30 -12 -11 -9 -29 -24 -39 -33 -23 -19 -84 -30 -102 -19 -11 6 -11 9 0 13 8
3 -60 7 -151 8 l-165 3 165 6 165 6 -165 4 -165 4 165 6 165 6 -202 2 c-127 1
-203 6 -203 12 0 6 -26 10 -59 10 -51 0 -59 -3 -64 -21 -5 -18 -11 -20 -34
-14 -15 3 -35 13 -44 21 -9 8 -36 14 -65 14 -41 0 -54 5 -82 31 -17 16 -32 39
-32 49 0 37 -22 31 -70 -19 -27 -28 -54 -51 -60 -51 -6 0 -9 -4 -5 -9 3 -6 -9
-26 -26 -45 -22 -26 -39 -36 -60 -36 -27 0 -29 3 -29 38 l0 37 -74 1 c-57 2
-76 -1 -80 -13 -3 -8 -9 -12 -14 -10 -4 3 -36 -35 -72 -84 l-65 -89 -55 1
c-40 1 -48 3 -30 8 18 6 9 8 -32 8 -32 1 -62 4 -68 8 -16 10 57 99 88 106 15
4 50 7 77 8 60 1 124 36 119 64 -4 25 -8 28 -46 36 -24 5 -34 13 -36 29 -4 28
-24 37 -49 23 -11 -5 -59 -65 -106 -131 -48 -67 -87 -117 -87 -111 0 7 -25 12
-62 13 -61 1 -61 1 -18 7 45 6 45 6 -25 14 -38 4 -113 5 -165 3 -61 -2 -79 -1
-50 4 l45 7 -45 3 -45 3 50 7 c46 6 30 16 -20 11 -17 -1 -15 3 10 29 32 33 45
38 45 15 0 -8 7 -15 15 -15 7 0 18 -6 22 -14 5 -8 33 -17 68 -21 43 -5 56 -3
45 4 -10 7 -11 11 -2 11 6 0 12 7 12 15 0 20 5 19 38 -4 33 -24 82 -18 82 10
0 10 5 21 10 24 17 11 11 20 -20 32 -17 6 -30 7 -30 2 0 -12 -57 -12 -62 0 -1
5 -31 11 -66 13 -52 2 -65 0 -73 -15 -6 -9 -17 -17 -26 -17 -13 0 -12 5 7 25
l23 25 -21 0 c-12 0 -22 5 -22 10 0 24 -32 7 -57 -30 -24 -37 -28 -39 -42 -26
-13 14 -13 18 6 38 l22 23 -40 2 c-21 2 -39 -2 -39 -7 0 -6 -15 -11 -32 -11
l-33 -1 30 -8 c24 -6 17 -8 -35 -10 -36 -1 -74 -6 -85 -11 -13 -6 9 -7 63 -3
71 5 81 4 76 -9 -3 -8 4 -24 17 -36 20 -18 20 -21 6 -27 -10 -3 -17 -16 -17
-28 0 -12 -9 -27 -21 -34 -12 -8 -20 -22 -19 -35 3 -36 1 -38 -23 -22 -35 22
-97 3 -97 -30 0 -14 -4 -25 -10 -25 -6 0 -10 31 -11 73 l-1 72 -19 -40 c-11
-22 -18 -54 -16 -72 2 -25 -2 -35 -20 -44 -13 -7 -23 -21 -23 -31 0 -16 -11
-23 -33 -19 -4 1 -13 -10 -19 -24 -15 -34 -28 -31 -28 7 0 30 -1 30 -19 14
-11 -10 -22 -28 -25 -41 -4 -14 -13 -22 -23 -21 -9 0 -19 -7 -21 -16 -2 -11 3
-18 12 -18 23 0 20 -17 -4 -23 -13 -3 -20 0 -20 9 0 8 -9 14 -20 14 -16 0 -20
-7 -20 -37 0 -35 1 -36 16 -17 14 18 15 18 4 -3 -6 -13 -15 -23 -20 -23 -5 0
-10 -6 -13 -12 -2 -7 -2 1 0 17 4 25 0 22 -21 -20 l-25 -50 -10 28 c-22 57
-22 77 -2 134 11 32 23 75 27 96 3 20 10 37 15 37 5 0 9 6 9 14 0 26 51 169
89 250 21 44 63 133 94 196 30 63 58 126 62 140 4 14 11 27 15 30 15 10 78
117 100 170 13 30 29 62 35 70 7 8 18 26 25 40 26 52 -17 -3 -50 -65 -18 -33
-45 -78 -60 -100 -66 -97 -262 -482 -312 -615 -79 -210 -88 -244 -183 -705
-43 -208 -54 -307 -66 -608 -12 -280 -12 -299 9 -472 27 -217 62 -375 137
-612 72 -225 110 -324 152 -391 18 -29 33 -56 33 -61 0 -5 50 -83 110 -174
107 -162 115 -171 303 -346 177 -167 279 -253 309 -263 19 -7 0 -26 -49 -48
-58 -25 -158 -97 -203 -145 -48 -51 -23 -41 37 15 69 65 146 112 236 143 19 7
81 -20 132 -58 60 -45 168 -97 267 -130 55 -18 104 -39 108 -46 13 -24 22
-117 12 -123 -5 -3 -47 -1 -92 5 -150 18 -297 -19 -376 -95 -39 -38 -54 -41
-117 -27 -29 7 -56 28 -113 88 -80 83 -74 67 14 -36 28 -34 52 -67 52 -72 0
-6 -11 -30 -25 -53 -26 -44 -65 -181 -65 -228 0 -27 -2 -28 -51 -28 -58 0
-146 18 -299 60 -58 16 -109 25 -113 21 -4 -4 11 -13 35 -19 177 -45 291 -71
338 -77 79 -9 90 -14 90 -36 0 -36 111 -148 280 -284 91 -73 183 -148 204
-167 l40 -35 -21 -49 c-12 -27 -28 -50 -36 -52 -39 -8 -151 71 -194 136 -34
50 -58 18 -69 -90 -5 -49 -2 -75 14 -119 23 -66 133 -209 189 -247 21 -14 49
-33 63 -42 45 -30 114 -49 212 -60 54 -5 101 -10 105 -9 19 2 -95 29 -123 29
-111 0 -357 151 -315 193 8 8 1 16 -27 31 -56 31 -97 119 -97 208 0 92 12 100
66 46 25 -23 73 -56 107 -73 73 -34 84 -31 120 33 13 23 28 42 34 42 6 0 53
-34 104 -75 61 -49 94 -83 94 -95 0 -12 7 -20 18 -20 9 0 49 -25 87 -55 39
-30 102 -78 142 -107 41 -30 71 -59 70 -68 -1 -8 -13 -21 -27 -28 l-25 -14 25
7 c57 16 86 16 98 2 16 -19 79 -133 98 -180 9 -21 22 -36 28 -34 6 2 13 32 16
67 l5 62 100 -76 c55 -42 141 -108 190 -146 50 -39 119 -91 155 -117 36 -25
81 -61 100 -78 46 -43 259 -196 440 -317 80 -53 172 -119 205 -147 104 -88
161 -129 257 -187 51 -31 111 -71 133 -89 22 -17 51 -38 65 -45 56 -29 120
-85 120 -105 0 -11 -12 -51 -26 -90 -13 -38 -29 -83 -33 -100 -5 -16 -31 -109
-58 -205 -48 -168 -73 -282 -114 -530 -11 -63 -33 -171 -49 -240 -45 -189 -88
-390 -96 -448 -10 -80 10 -62 30 26 10 42 22 86 26 97 10 24 19 55 25 87 14
72 47 225 52 238 4 8 8 29 10 45 2 17 8 44 13 60 9 28 27 130 35 200 2 17 9
55 15 85 6 30 14 69 17 85 3 17 9 35 13 40 4 6 10 30 14 55 3 25 13 70 22 100
8 30 20 73 26 95 6 22 21 72 34 112 13 39 24 78 24 87 0 21 40 138 51 150 5 6
9 17 9 26 0 9 6 17 14 17 14 0 11 -21 -6 -43 -9 -13 1 -74 13 -74 4 0 7 9 6
20 -1 11 -5 20 -9 20 -5 0 -1 11 8 25 9 14 21 22 26 19 6 -4 8 1 4 13 -6 17
-2 19 25 15 28 -4 31 -2 25 14 -5 11 -10 36 -13 57 -6 39 -9 42 -32 28 -8 -6
-11 -16 -6 -31 5 -15 3 -20 -3 -16 -6 4 -15 -2 -21 -11 -8 -14 -9 -10 -4 17 3
19 10 37 15 38 4 2 8 14 8 27 0 13 5 27 10 30 6 4 8 10 5 15 -9 14 14 50 30
50 8 0 15 5 15 11 0 5 -4 8 -10 4 -5 -3 -8 10 -7 32 2 36 1 38 -27 35 -28 -3
-156 52 -164 70 -2 5 -11 8 -21 8 -9 0 -26 6 -37 14 -10 8 -29 12 -40 10 -12
-3 -25 -1 -28 5 -5 7 2 11 16 12 22 0 22 1 3 9 -18 8 -17 9 7 9 17 1 33 -7 42
-21 9 -12 18 -20 21 -17 9 10 -27 49 -46 49 -15 0 -19 7 -20 33 0 17 -3 26 -6
20 -2 -7 -11 -13 -18 -13 -7 0 -16 -11 -19 -25 -5 -20 -13 -25 -37 -25 -17 0
-28 4 -24 9 7 12 -32 34 -45 26 -5 -3 -20 6 -34 20 -14 14 -29 25 -34 25 -5 0
-6 20 -2 45 4 25 3 45 -2 45 -4 0 -8 -18 -8 -39 0 -25 -5 -41 -14 -44 -8 -3
-16 -2 -18 2 -3 9 -156 83 -195 95 -13 4 -23 14 -23 22 0 10 -6 13 -19 9 -22
-7 -53 4 -45 16 3 5 -7 9 -23 10 -25 0 -26 1 -8 10 17 8 16 8 -7 4 -29 -6
-101 23 -92 37 3 4 0 8 -6 8 -6 0 -8 5 -4 13 6 9 5 9 -7 0 -13 -10 -21 -10
-42 0 -15 6 -27 16 -27 20 0 4 -15 15 -32 23 -86 41 -143 85 -130 100 4 4 2 4
-5 0 -6 -3 -20 2 -30 12 -23 24 -55 35 -63 23 -7 -12 -156 105 -152 119 1 6
-7 10 -18 10 -11 0 -20 5 -20 10 0 6 -6 10 -14 10 -8 0 -21 9 -29 21 -16 22
-94 83 -202 156 -38 26 -77 54 -85 64 -8 9 -25 19 -37 23 -17 6 -21 13 -18 34
2 15 7 49 10 75 5 37 10 47 21 43 8 -3 14 -1 14 4 0 6 -4 10 -10 10 -5 0 -10
9 -10 21 0 26 15 17 44 -29 27 -42 61 -82 69 -82 3 0 38 -33 79 -73 40 -39 88
-83 107 -97 18 -14 43 -34 55 -45 31 -29 125 -98 169 -124 20 -13 37 -26 37
-30 0 -4 16 -13 35 -20 19 -7 35 -16 35 -20 0 -4 17 -14 39 -21 21 -7 51 -24
67 -39 16 -14 52 -37 79 -51 28 -14 52 -28 53 -32 2 -5 10 -8 18 -8 14 0 64
-27 74 -41 3 -4 20 -10 38 -14 17 -3 32 -11 32 -16 0 -5 7 -9 15 -9 9 0 24
-13 33 -30 9 -16 25 -30 34 -30 12 0 17 -7 15 -22 -1 -14 4 -23 16 -26 22 -4
22 20 2 78 -17 47 -21 94 -6 71 7 -11 9 -11 14 0 3 8 6 -4 7 -26 3 -60 8 -97
15 -103 3 -3 5 17 4 46 -1 28 3 58 10 66 6 7 11 18 10 22 -6 32 3 44 30 44 17
0 33 -4 36 -10 3 -6 -5 -10 -18 -10 -22 0 -25 -5 -29 -40 -4 -49 -1 -55 36
-64 21 -5 26 -10 17 -15 -10 -7 -11 -13 -2 -27 6 -11 11 -13 11 -6 0 6 9 12
19 12 11 0 23 5 27 11 4 8 9 7 15 -2 6 -10 9 -5 10 16 1 24 3 25 6 8 4 -19 11
-23 44 -23 28 0 39 -4 39 -15 0 -11 -11 -15 -37 -15 l-38 -1 55 -29 c30 -16
63 -29 72 -30 16 0 16 3 3 41 -19 54 -20 52 18 45 17 -3 39 -1 47 4 12 8 11
10 -7 10 -27 0 -27 -3 -9 48 l14 40 -30 6 c-17 3 -57 6 -90 6 -67 0 -64 -10
-28 94 20 61 46 77 37 23 l-5 -35 56 -5 c95 -9 115 -14 175 -42 32 -15 64 -24
72 -21 8 3 15 1 15 -4 0 -6 7 -10 16 -10 8 0 12 5 9 10 -3 6 -1 10 5 10 6 0 5
13 -4 35 -9 20 -12 43 -9 52 4 11 3 14 -5 9 -7 -4 -12 -14 -12 -22 0 -8 -9
-14 -19 -14 -11 0 -23 -4 -26 -10 -3 -5 -24 -10 -46 -10 -31 0 -39 4 -39 19 0
10 -3 33 -6 50 -4 20 -3 31 5 31 6 0 11 -14 11 -31 0 -17 6 -37 14 -45 25 -24
44 -6 48 44 6 62 1 74 -22 62 -29 -15 -48 -12 -55 10 -4 13 -15 20 -31 20 -30
0 -31 14 -1 28 l22 11 -22 0 c-16 1 -23 7 -23 21 0 10 -7 23 -15 28 -13 7 -11
11 12 21 19 9 29 9 31 2 2 -6 7 -9 11 -7 4 3 13 1 21 -4 12 -7 12 -12 2 -22
-15 -15 -16 -28 -2 -28 6 0 10 7 10 15 0 18 20 20 20 3 1 -7 12 1 25 17 24 28
25 29 25 8 0 -13 5 -23 11 -23 5 0 7 -5 3 -11 -3 -6 0 -15 7 -20 12 -8 12 -11
-1 -19 -13 -9 -8 -14 12 -11 4 0 28 -32 54 -72 27 -39 53 -75 59 -79 5 -4 -1
-8 -15 -8 -22 -1 -23 -2 -7 -11 9 -6 15 -14 13 -18 -3 -4 4 -12 15 -19 11 -7
19 -8 19 -2 0 5 -4 10 -10 10 -5 0 -10 8 -10 18 0 13 2 14 9 3 7 -11 9 -11 14
0 4 11 6 11 6 -1 1 -9 10 -23 21 -33 12 -10 18 -23 14 -29 -4 -7 -3 -8 4 -4 7
4 12 3 12 -3 0 -5 -6 -12 -12 -15 -7 -3 -1 -3 15 0 17 4 27 2 27 -5 0 -6 11
-17 25 -23 13 -6 27 -19 30 -29 4 -10 12 -18 18 -16 7 1 11 -6 10 -16 0 -12 4
-16 13 -13 8 3 25 -5 39 -18 14 -13 41 -34 60 -47 19 -13 33 -30 30 -37 -3 -7
-1 -10 4 -7 9 5 99 -43 127 -68 33 -29 44 -37 54 -37 5 0 10 -4 10 -10 0 -5 8
-10 18 -10 27 0 97 -51 82 -60 -9 -5 -8 -9 3 -13 8 -3 20 0 26 6 8 8 11 8 11
-1 0 -7 6 -12 14 -12 8 0 21 -6 28 -13 7 -7 37 -22 66 -32 30 -11 52 -25 52
-34 0 -8 3 -11 6 -8 4 4 19 0 33 -7 14 -8 44 -22 66 -31 22 -9 63 -27 90 -40
63 -29 81 -36 128 -50 16 -4 51 -18 78 -31 27 -13 61 -24 75 -24 28 0 53 -24
54 -51 0 -21 41 -151 51 -164 8 -11 43 -109 74 -210 10 -33 22 -64 25 -70 4
-5 22 -53 40 -105 19 -52 37 -99 41 -105 3 -5 10 -25 14 -42 3 -18 10 -33 14
-33 9 0 28 -53 37 -103 3 -20 10 -37 15 -37 5 0 9 -9 9 -19 0 -11 6 -26 13
-33 6 -7 20 -40 30 -73 11 -33 23 -67 27 -76 5 -9 12 -34 16 -55 3 -22 10 -43
14 -49 10 -14 22 -72 23 -117 1 -27 6 -38 20 -42 14 -3 18 -11 14 -25 -3 -12
-1 -21 4 -21 12 0 12 -53 0 -66 -22 -24 22 -194 50 -194 7 0 9 -12 5 -35 -6
-30 -4 -35 11 -35 13 0 22 12 30 40 10 38 9 41 -12 46 -13 3 -26 15 -29 27 -9
33 -7 150 3 165 14 23 74 11 88 -18 15 -30 17 -109 3 -144 -12 -33 -2 -116 15
-116 21 0 45 224 26 243 -14 14 -15 74 -1 82 6 3 10 19 10 35 0 16 4 32 10 35
6 3 10 -1 10 -9 0 -22 16 -20 16 2 1 9 4 26 8 37 6 16 6 17 -3 5 -20 -29 -23
1 -7 68 9 38 19 93 22 123 4 30 13 74 21 99 9 25 22 83 29 130 20 127 40 243
64 360 11 58 34 177 50 265 17 88 34 174 39 190 5 17 12 47 16 67 4 28 11 38
25 38 21 0 243 100 248 112 2 5 8 8 12 8 5 0 49 29 98 64 49 36 105 73 123 83
19 10 47 30 63 43 55 46 166 161 166 170 0 6 6 10 14 10 7 0 31 21 52 46 21
26 58 66 80 90 23 25 49 56 59 70 10 15 22 23 31 20 10 -4 14 2 14 19 0 14 4
25 9 25 5 0 12 9 16 19 3 11 19 35 34 55 l29 36 6 -30 c6 -33 29 -39 61 -17
18 14 13 43 -6 32 -5 -4 -9 1 -9 9 0 19 -11 21 -28 4 -9 -9 -12 -6 -12 14 0
15 7 29 16 32 9 4 14 9 11 12 -3 3 8 30 24 60 16 30 29 61 29 69 0 8 5 15 11
15 5 0 7 -4 4 -10 -3 -5 1 -10 9 -10 8 0 18 5 21 10 14 22 54 9 84 -27 17 -21
31 -43 31 -50 0 -21 11 -16 71 37 32 28 60 50 63 50 3 0 6 -12 6 -26 0 -23 2
-25 16 -13 9 7 23 14 32 15 8 2 19 8 23 15 6 10 12 9 28 -5 21 -19 21 -19 21
17 0 20 -4 38 -9 41 -15 10 1 60 29 91 15 17 30 42 34 57 5 24 3 28 -14 28
-11 0 -20 5 -20 10 0 16 42 12 62 -7 17 -15 18 -15 18 0 0 12 9 17 30 17 26 0
30 4 31 28 1 15 0 35 -1 45 -1 16 5 18 42 16 24 -2 49 1 56 5 8 4 16 -2 22
-19 12 -31 32 -40 57 -26 16 9 16 10 -5 11 -12 0 -25 7 -29 15 -19 51 52 -3
77 -57 l17 -39 13 61 c12 56 14 60 41 60 27 0 29 3 29 40 l0 40 -60 0 c-33 0
-60 -4 -60 -10 0 -5 -9 -10 -20 -10 -11 0 -20 7 -20 15 0 11 11 15 40 15 22 0
40 5 40 10 0 7 7 7 21 0 16 -9 26 -8 44 4 27 18 55 21 55 6 0 -5 -7 -10 -15
-10 -10 0 -15 -10 -15 -30 0 -19 5 -30 14 -30 8 0 16 -6 19 -14 7 -17 57 -18
57 -1 0 6 12 18 28 25 15 8 29 15 30 16 2 2 -13 24 -33 51 -28 37 -36 55 -34
83 3 44 -13 75 -35 67 -9 -4 -16 -2 -16 3 0 13 33 13 63 -1 19 -8 22 -16 19
-40 -3 -21 0 -29 11 -29 8 0 18 6 20 13 4 9 6 9 6 -1 1 -8 6 -10 13 -6 7 4 23
9 36 10 34 4 36 10 15 31 -15 15 -18 29 -14 68 l5 50 6 -38 c14 -78 33 -61 34
30 1 47 -3 68 -11 69 -7 1 -17 2 -22 3 -17 2 -19 40 -2 58 9 10 18 30 19 46 2
29 5 29 -101 18 -5 -1 -5 -5 -2 -11 3 -5 -3 -10 -14 -10 -11 0 -23 5 -27 11
-8 13 15 30 36 26 8 -1 24 6 35 16 11 10 32 21 48 24 15 3 27 9 27 14 0 5 9 9
19 9 11 0 22 6 24 13 4 7 6 6 6 -4 1 -17 -21 -31 -56 -38 -4 0 -2 -6 5 -13 9
-9 16 -7 32 7 20 18 20 18 20 -39 0 -31 -5 -100 -11 -153 -11 -101 -16 -167
-20 -245 -1 -27 -5 -48 -8 -48 -7 0 -25 -105 -37 -211 -9 -78 10 -84 84 -27
111 86 195 207 263 381 13 31 26 57 30 57 16 0 54 -189 45 -222 -3 -13 -23
-34 -45 -48 -21 -14 -76 -53 -122 -88 -46 -34 -95 -70 -108 -80 -14 -9 -36
-27 -50 -38 -14 -12 -37 -25 -50 -29 -13 -4 -31 -13 -40 -20 -96 -79 -118 -95
-129 -95 -8 0 -28 -12 -46 -26 -57 -47 -119 -99 -150 -127 -17 -15 -49 -37
-71 -48 -67 -33 -99 -52 -113 -66 -8 -8 -30 -23 -51 -34 -37 -20 -93 -53 -176
-102 -26 -15 -53 -27 -59 -27 -7 0 -17 -5 -22 -10 -11 -11 -62 -39 -164 -91
-36 -18 -78 -42 -95 -53 -80 -56 -140 -86 -171 -86 -24 0 -34 -5 -39 -21 -9
-27 3 -109 16 -109 5 0 9 -5 9 -11 0 -11 23 -67 41 -101 5 -10 9 -33 9 -51 0
-19 8 -63 19 -98 10 -35 28 -102 40 -149 31 -117 49 -182 77 -270 13 -41 39
-129 59 -194 19 -65 42 -133 50 -149 8 -17 15 -37 15 -46 1 -9 8 -34 16 -56 8
-22 22 -67 30 -100 8 -33 23 -82 33 -110 10 -27 22 -70 26 -95 4 -25 13 -67
21 -94 8 -27 14 -64 14 -82 0 -17 11 -57 25 -88 14 -31 25 -66 25 -77 0 -12 6
-35 14 -52 15 -37 49 -142 66 -204 6 -24 15 -43 21 -43 6 0 8 8 5 18 -2 9 -10
44 -16 77 -7 33 -23 89 -35 125 -40 111 -73 231 -90 325 -31 174 -123 522
-148 558 -13 19 -31 65 -41 103 -10 38 -35 125 -56 194 -21 69 -50 170 -64
225 -15 55 -33 123 -41 150 -29 103 -47 196 -41 218 5 22 58 70 216 192 43 33
115 89 161 125 46 36 145 108 220 160 76 52 245 176 377 275 131 99 260 196
286 215 26 19 116 88 201 154 166 127 179 132 188 63 l4 -32 1 33 c1 18 -9 89
-23 157 -39 193 -82 296 -93 223 -2 -13 -7 -27 -12 -33 -4 -5 -13 -28 -20 -50
-20 -63 -88 -194 -135 -260 -43 -61 -133 -150 -142 -141 -3 3 7 78 23 168 27
158 28 174 29 523 l0 360 44 75 c71 122 105 191 125 255 11 33 34 97 53 143
18 45 33 93 33 106 0 13 7 43 15 67 32 91 45 316 28 509 -7 85 -9 69 -14 -155
l-5 -250 -42 -150 c-53 -192 -76 -253 -158 -422 -70 -142 -103 -201 -138 -242
l-21 -23 20 6 c18 5 23 0 33 -39 7 -25 12 -63 12 -85 0 -47 -15 -58 -139 -110
-42 -18 -91 -38 -110 -46 -68 -30 -53 8 32 76 58 46 138 140 150 175 l7 20
-15 -20 c-52 -68 -94 -110 -232 -233 -191 -169 -299 -245 -473 -335 -169 -86
-395 -188 -480 -216 -36 -11 -126 -41 -200 -65 -75 -24 -196 -59 -270 -76 -74
-17 -162 -38 -196 -46 -33 -8 -76 -14 -96 -14 -19 0 -64 -9 -99 -21 -87 -28
-144 -37 -350 -54 -97 -8 -210 -20 -250 -25 -166 -21 -632 -1 -909 39 -82 12
-159 21 -230 27 -101 8 -380 80 -677 175 -84 27 -158 49 -165 49 -23 0 -341
161 -466 237 -138 83 -284 177 -304 196 -7 7 -32 24 -55 39 -22 15 -80 64
-128 110 -105 100 -91 46 -140 553 -9 88 -24 234 -35 325 -50 431 -70 813 -71
1330 l0 351 61 132 c34 73 72 152 85 177 12 25 28 63 35 85 7 22 27 69 45 105
18 36 54 117 79 180 26 63 55 133 66 155 46 99 100 226 100 238 0 6 12 32 26
57 14 25 57 113 96 195 38 83 85 182 103 220 19 39 43 92 53 120 28 70 46 73
38 4 -14 -115 -5 -450 14 -494 4 -11 18 -74 31 -140 12 -66 33 -150 45 -187
44 -124 95 -220 110 -205 3 3 21 39 38 80 31 70 57 118 149 277 21 36 56 102
77 147 22 45 64 124 93 175 29 51 75 136 100 188 97 197 144 252 211 250 59
-3 63 -1 42 15 -11 8 -32 15 -47 15 -40 0 -43 13 -14 56 14 20 51 90 82 155
44 90 63 121 83 128 57 21 200 53 214 48 12 -5 16 -21 16 -69 0 -173 53 -515
99 -639 11 -30 29 -85 40 -124 11 -38 33 -117 50 -175 116 -403 360 -907 625
-1295 75 -109 108 -145 135 -145 33 0 47 37 96 260 37 167 107 454 121 493 8
23 24 87 34 142 21 107 29 139 67 255 36 109 93 362 79 348 -4 -3 -20 -58 -36
-122 -15 -63 -44 -164 -63 -223 -19 -59 -49 -164 -65 -233 -17 -69 -52 -204
-78 -300 -40 -153 -68 -271 -103 -440 -19 -91 -38 -154 -47 -157 -34 -11 -245
295 -347 502 -27 55 -62 120 -77 145 -27 42 -160 332 -160 348 0 4 -9 23 -19
43 -11 20 -33 74 -49 120 -17 46 -38 102 -48 124 -18 42 -112 372 -118 415 -2
14 -20 86 -39 160 -33 127 -69 345 -83 505 l-6 71 93 17 c291 53 462 67 825
67 176 0 381 -5 455 -11 186 -14 331 -35 339 -49 10 -15 50 -269 50 -314 0
-20 6 -53 14 -73 71 -188 145 -526 186 -846 18 -138 19 -174 10 -290 -6 -72
-13 -143 -16 -157 -13 -65 -27 -110 -34 -110 -4 0 -26 37 -49 83 -22 45 -55
107 -72 137 -18 30 -52 93 -76 140 -24 47 -57 108 -74 135 -17 28 -54 93 -81
145 -28 52 -56 102 -63 110 -7 8 -28 42 -45 75 -33 60 -76 115 -92 115 -4 0
-8 -9 -8 -20 0 -12 5 -17 14 -14 12 5 33 -22 73 -95 7 -13 28 -49 47 -80 18
-31 49 -85 68 -121 19 -36 59 -108 90 -160 30 -52 66 -117 80 -145 109 -221
190 -376 194 -372 16 16 55 151 61 209 7 77 13 84 88 94 64 9 56 24 -14 24
-33 0 -62 4 -66 9 -3 6 -1 29 5 53 23 99 -99 799 -186 1068 -25 80 -69 389
-57 401 11 10 194 -20 219 -36 13 -8 68 -105 127 -222 58 -114 128 -242 157
-283 113 -165 163 -247 222 -360 16 -30 39 -71 52 -90 21 -31 97 -152 129
-205 44 -72 182 -225 203 -225 8 0 14 33 19 93 3 50 11 117 16 148 5 30 14
163 20 295 15 348 18 384 35 384 18 0 17 20 -1 44 -8 11 -15 34 -15 50 0 17
-4 46 -9 64 -17 59 -8 64 67 35 37 -13 72 -29 79 -35 28 -23 262 -397 283
-453 4 -11 24 -56 45 -100 20 -44 53 -116 72 -159 53 -125 63 -147 89 -206 58
-134 179 -496 220 -659 18 -73 35 -136 38 -138 10 -10 25 9 47 62 24 58 38 65
51 24 5 -14 6 -1 3 33 -4 44 4 90 35 212 47 183 66 305 80 511 12 184 19 235
32 235 6 0 63 -28 127 -62 179 -95 188 -99 265 -107 98 -11 108 -18 122 -88
30 -139 64 -330 74 -411 6 -48 14 -107 19 -132 5 -25 17 -97 26 -160 9 -63 25
-171 35 -240 11 -69 24 -170 30 -225 10 -95 18 -149 41 -275 43 -232 50 -377
34 -712 -15 -322 -40 -644 -55 -718 -5 -25 -16 -94 -25 -155 -40 -270 -100
-605 -139 -780 -44 -198 -115 -414 -172 -521 -34 -63 -75 -166 -64 -159 10 6
51 90 103 210 37 86 72 185 107 305 64 220 60 211 129 283 36 38 109 101 161
140 52 39 144 116 205 172 190 174 190 174 205 237 11 50 18 61 54 84 73 48
157 116 151 122 -3 3 -20 -9 -38 -26 -18 -18 -38 -32 -45 -32 -7 0 -12 -4 -12
-8 0 -13 -93 -60 -107 -55 -8 3 -13 22 -13 46 0 23 -10 79 -22 124 l-23 81
-38 6 c-55 9 -157 -37 -273 -124 -65 -49 -120 -77 -131 -67 -3 3 2 57 11 119
21 150 46 465 46 587 0 92 15 290 25 338 3 13 19 30 36 39 52 26 162 169 217
279 14 28 37 68 53 90 27 41 85 159 120 248 10 26 43 96 73 155 29 59 62 132
71 162 10 30 30 82 45 115 15 33 39 101 54 150 15 50 34 108 41 130 7 22 17
56 21 75 3 19 19 58 35 85 28 49 33 75 79 387 11 77 15 262 5 277 -3 5 -10
101 -16 213 -11 208 -43 428 -94 653 -14 61 -30 130 -35 155 -6 25 -14 54 -19
65 -5 11 -24 58 -41 105 -18 47 -56 132 -85 190 -28 58 -58 120 -65 139 -8 19
-54 109 -103 200 -49 91 -107 204 -129 251 -102 216 -162 330 -206 387 -136
179 -174 224 -291 345 -111 115 -356 327 -478 414 -23 16 -88 63 -144 104
-145 105 -431 289 -519 333 -19 10 -57 31 -85 48 -27 16 -66 37 -85 45 -34 15
-204 99 -245 121 -87 46 -127 64 -138 60 -6 -2 4 -12 23 -22 57 -29 68 -58 18
-45 -18 5 -64 11 -103 15 -38 4 -75 11 -80 15 -16 13 -145 28 -151 18 -3 -5
-17 -2 -30 7 -19 12 -29 13 -45 5 -16 -9 -26 -8 -44 4 -22 14 -117 16 -859 16
l-834 0 18 -82z m2200 -18 c0 -5 -4 -10 -9 -10 -6 0 -13 5 -16 10 -3 6 1 10 9
10 9 0 16 -4 16 -10z m95 -43 l20 -20 -25 7 c-14 4 -33 8 -42 7 -11 0 -18 8
-18 19 0 23 35 16 65 -13z m116 -65 c-7 -2 -18 1 -23 6 -8 8 -4 9 13 5 13 -4
18 -8 10 -11z m68 -28 c8 -7 -12 -24 -30 -24 -13 0 -19 7 -19 21 0 16 4 19 23
13 12 -3 24 -8 26 -10z m131 -74 c13 -8 13 -10 -2 -10 -9 0 -20 5 -23 10 -8
13 5 13 25 0z m647 -426 c-3 -3 -12 -4 -19 -1 -8 3 -5 6 6 6 11 1 17 -2 13 -5z
m911 -1303 c41 -21 98 -109 125 -196 39 -121 57 -185 57 -202 0 -15 -3 -14
-19 6 -10 14 -25 22 -37 19 -17 -3 -20 -15 -25 -98 -3 -52 -10 -112 -14 -132
-4 -24 -3 -38 3 -38 15 0 19 16 32 123 11 86 14 94 28 81 12 -13 14 -35 8
-137 -6 -118 -8 -123 -36 -149 -21 -20 -25 -28 -14 -32 15 -6 51 27 58 53 2 9
7 42 11 74 7 64 25 78 25 19 0 -51 -19 -198 -31 -245 -5 -21 -22 -52 -38 -69
-22 -25 -33 -30 -54 -24 -59 14 -117 114 -160 276 -38 141 -51 261 -44 414 6
140 24 214 60 254 25 27 19 26 65 3z m-3898 -36 c361 -14 551 -31 673 -59 38
-9 86 -16 107 -16 21 0 42 -4 45 -10 3 -5 25 -10 49 -10 23 0 46 -3 50 -7 4
-5 29 -13 54 -19 26 -6 88 -24 137 -39 50 -15 128 -38 175 -51 47 -14 94 -29
105 -33 11 -5 29 -12 40 -15 11 -2 65 -21 120 -40 55 -19 109 -36 121 -36 11
0 24 -4 30 -8 5 -5 29 -14 54 -22 25 -7 64 -19 87 -26 50 -16 265 -100 290
-113 40 -21 113 -56 198 -95 50 -23 134 -66 189 -96 54 -30 128 -71 166 -90
55 -29 271 -178 290 -200 3 -3 21 -17 40 -30 19 -14 40 -28 45 -32 6 -5 30
-22 55 -38 25 -16 68 -49 95 -74 28 -26 62 -54 77 -63 28 -18 45 -43 28 -43
-6 0 -10 -5 -10 -11 0 -8 4 -8 15 1 12 10 29 -3 102 -79 131 -135 154 -161
147 -172 -3 -5 -1 -8 4 -7 17 5 72 -64 73 -91 2 -40 -2 -66 -11 -69 -4 -2 -6
-12 -3 -23 4 -15 2 -18 -12 -13 -11 5 -15 15 -12 30 2 13 -1 26 -7 29 -6 3 -1
3 12 1 19 -4 22 0 22 25 0 38 -24 38 -44 2 -12 -21 -15 -24 -16 -10 0 10 7 26
16 34 12 12 13 18 3 24 -16 9 -39 0 -39 -16 0 -16 -27 -27 -35 -14 -4 5 -11 7
-16 4 -14 -10 -11 -42 7 -60 14 -13 19 -14 25 -3 7 10 9 10 9 -2 0 -20 -12
-34 -30 -38 -8 -2 -16 -8 -18 -13 -2 -5 -13 -9 -25 -9 -17 0 -28 14 -50 63
-15 34 -27 74 -27 90 0 15 -4 27 -10 27 -5 0 -10 -4 -10 -10 0 -5 -5 -10 -11
-10 -6 0 -9 6 -6 13 5 15 -42 111 -51 102 -7 -7 -8 -13 -10 -89 l-2 -50 -35
34 c-19 18 -38 31 -42 27 -9 -9 -43 22 -43 40 0 21 -81 103 -102 103 -10 0
-18 -5 -18 -10 0 -10 -38 5 -50 19 -3 4 -50 40 -105 81 -55 41 -123 92 -152
113 -46 34 -58 39 -100 36 -43 -2 -81 7 -123 32 -8 5 -33 19 -55 31 l-40 23
60 5 60 6 -80 5 c-44 3 -88 9 -97 13 -15 7 -18 3 -18 -18 0 -14 -2 -26 -4 -26
-2 0 -44 18 -93 41 -116 54 -179 76 -231 83 -24 3 -55 15 -69 26 -14 11 -39
20 -55 20 -19 0 -27 4 -22 11 4 7 21 9 40 6 38 -6 43 2 17 25 -22 20 -94 50
-101 43 -3 -3 0 -16 6 -30 16 -35 15 -38 -8 -32 -11 3 -20 1 -20 -4 0 -5 -20
1 -44 15 -25 14 -68 32 -97 40 -29 9 -56 22 -61 29 -5 8 -8 7 -8 -5 0 -10 -4
-18 -10 -18 -5 0 -10 8 -10 19 0 15 -10 20 -45 25 -29 5 -45 12 -45 21 0 11
-14 14 -62 11 -35 -2 -44 -1 -20 1 32 3 42 8 42 22 0 14 -17 23 -72 38 -123
34 -163 42 -168 33 -3 -5 -12 -5 -20 0 -8 6 -33 10 -55 10 -23 0 -67 9 -99 21
-48 16 -61 18 -68 7 -6 -9 -11 -9 -14 -2 -3 8 -21 8 -57 2 -29 -5 -70 -8 -92
-7 -68 2 -82 0 -67 -10 11 -7 11 -9 -2 -14 -19 -7 -46 1 -46 14 0 5 -15 9 -32
9 -23 0 -29 3 -19 9 8 5 24 6 35 1 27 -9 84 9 64 21 -20 13 -86 11 -90 -3 -4
-10 -14 -9 -46 1 -23 8 -45 11 -49 8 -3 -4 -1 -7 5 -7 7 0 12 -12 12 -26 0
-21 3 -24 23 -19 21 6 21 5 3 -6 -17 -10 -22 -9 -34 9 -17 26 -37 28 -46 7 -8
-22 -43 -18 -49 5 -4 16 2 24 25 33 31 13 31 13 -44 30 -41 10 -103 22 -139
26 -63 8 -63 9 -19 12 25 2 -11 6 -80 9 -125 6 -124 6 70 9 l195 4 -75 12
c-169 30 -326 52 -337 47 -7 -2 -13 -17 -13 -33 0 -29 -14 -39 -23 -16 -4 9
-7 9 -14 0 -7 -10 -30 -9 -105 6 -105 20 -118 25 -118 47 0 8 -6 14 -12 14 -9
0 -8 4 2 10 10 7 -28 10 -117 10 l-133 0 -1 -32 c-1 -18 -3 -26 -6 -16 -8 29
-226 36 -423 13 -59 -7 -78 5 -62 39 l12 26 -64 0 c-34 0 -128 -13 -207 -29
-79 -16 -172 -31 -206 -33 -63 -4 -63 -4 -63 23 0 44 -17 50 -133 44 -58 -3
-108 -1 -111 3 -3 5 -22 6 -43 3 l-38 -5 35 -7 c22 -4 -11 -8 -90 -10 l-125
-3 125 -6 125 -6 -95 -3 c-52 -2 -85 -6 -72 -8 19 -4 20 -6 8 -19 -8 -8 -29
-14 -48 -14 -38 0 -138 -49 -138 -67 0 -7 5 -13 10 -13 6 0 10 5 10 10 0 6 33
10 79 10 54 0 81 4 83 12 4 10 9 8 21 -3 12 -12 14 -27 10 -52 -3 -20 -8 -36
-12 -35 -19 2 -31 -3 -26 -12 4 -6 -25 -11 -77 -12 -62 -2 -46 -4 62 -8 l145
-6 -166 -2 c-126 -1 -168 1 -172 11 -2 6 -1 36 3 65 3 29 3 55 0 57 -4 3 -27
1 -51 -4 -24 -5 -36 -9 -26 -10 10 -1 25 -7 33 -15 12 -13 10 -16 -19 -25 -91
-28 -120 -33 -128 -19 -7 10 -9 9 -9 -4 0 -13 -8 -18 -29 -18 -22 0 -30 6 -35
25 -5 20 -10 24 -24 16 -29 -16 -112 -25 -112 -12 0 6 5 11 10 11 6 0 10 5 10
10 0 6 -11 10 -25 10 -14 0 -25 -4 -25 -10 0 -5 -12 -10 -27 -10 -27 1 -27 1
-8 15 11 8 25 19 32 25 7 5 24 10 39 10 15 0 24 3 21 7 -8 8 32 29 84 44 21 7
39 16 39 21 0 4 11 8 25 8 14 0 25 5 25 10 0 6 11 10 25 10 14 0 25 5 25 10 0
6 7 10 16 10 9 0 22 7 28 15 15 19 83 34 71 15 -5 -9 -4 -11 4 -6 9 6 9 11 0
22 -9 11 -7 14 9 14 12 0 59 18 106 41 47 22 92 39 98 36 7 -2 25 4 40 15 33
23 103 48 134 48 13 0 24 5 24 10 0 6 7 10 15 10 8 0 23 4 33 9 34 18 149 42
247 51 55 5 118 12 140 15 221 30 560 68 755 84 224 19 265 23 269 27 3 3 30
2 60 0 31 -3 126 -8 211 -11z m4087 -427 c-3 -7 -5 -2 -5 12 0 14 2 19 5 13 2
-7 2 -19 0 -25z m-4964 -55 c-13 -2 -33 -2 -45 0 -13 2 -3 4 22 4 25 0 35 -2
23 -4z m5258 -116 c58 -160 88 -270 104 -387 3 -19 7 -45 10 -56 3 -12 12 -75
20 -140 9 -66 18 -130 20 -144 3 -14 8 -76 11 -137 l7 -113 -27 0 c-21 0 -30
-8 -44 -37 -9 -21 -20 -39 -24 -41 -5 -2 -8 -14 -8 -27 0 -12 -7 -39 -16 -60
-8 -20 -18 -74 -21 -118 -3 -45 -10 -90 -14 -99 -5 -9 -9 -92 -9 -184 0 -157
-7 -190 -25 -124 -5 19 -4 21 4 10 9 -12 11 -11 11 8 0 12 -5 22 -11 22 -7 0
-9 12 -5 35 3 19 9 50 12 69 5 30 3 34 -13 32 -10 -2 -17 -11 -16 -21 1 -15
-3 -13 -24 8 -29 29 -27 63 8 98 15 15 18 24 9 34 -13 15 -46 9 -54 -11 -11
-28 -26 -13 -26 26 0 29 4 40 15 40 12 0 15 14 15 62 0 71 -21 70 -23 -1 -1
-25 -7 -41 -14 -41 -13 0 -19 58 -15 125 3 32 -15 85 -29 85 -5 0 -9 -4 -9
-10 0 -5 -4 -10 -10 -10 -5 0 -10 9 -10 20 0 24 -35 28 -44 5 -3 -8 -10 -15
-16 -15 -6 0 -9 3 -7 8 3 4 -1 13 -9 20 -11 10 -17 5 -34 -28 -11 -22 -25 -38
-30 -35 -16 10 -12 19 25 58 22 23 40 34 50 31 8 -4 15 -1 15 4 0 6 -8 13 -17
15 -12 3 -10 5 7 6 18 1 21 4 12 10 -12 7 -12 12 0 32 34 60 71 81 68 37 -4
-41 0 -58 11 -58 6 0 8 7 5 17 -4 9 6 3 21 -13 15 -16 24 -31 19 -33 -4 -2
-12 3 -17 10 -12 21 -15 8 -8 -46 3 -27 7 -44 7 -37 1 6 14 12 28 12 22 0 24
3 15 14 -16 19 3 30 28 16 32 -16 52 -12 82 19 44 46 56 79 71 186 35 262 -3
567 -87 705 -17 26 -23 58 -28 128 -3 50 -3 92 1 92 4 0 19 -33 33 -73z
m-3921 -16 c0 -7 -27 -10 -70 -8 -38 1 -70 5 -70 8 0 3 32 7 70 8 43 1 70 -2
70 -8z m-3166 -24 c-3 -9 -12 -13 -21 -10 -8 3 -19 0 -23 -8 -5 -7 -12 -10
-16 -7 -3 4 9 16 27 27 36 22 43 22 33 -2z m-271 -16 c18 9 17 7 -5 -15 -32
-31 -37 -32 -33 -8 2 9 4 22 5 27 1 6 4 4 7 -2 3 -10 10 -10 26 -2z m369 -2
c-15 -6 -30 -5 -40 1 -13 7 -8 9 23 9 35 0 37 -1 17 -10z m2123 1 c3 -5 -3
-10 -14 -10 -12 0 -21 5 -21 10 0 6 6 10 14 10 8 0 18 -4 21 -10z m550 0 c4
-6 -6 -10 -22 -9 -25 0 -26 1 -8 9 11 5 21 9 22 9 1 1 5 -3 8 -9z m-58 -6 c-3
-3 -12 -4 -19 -1 -8 3 -5 6 6 6 11 1 17 -2 13 -5z m-694 -11 c-7 -2 -19 -2
-25 0 -7 3 -2 5 12 5 14 0 19 -2 13 -5z m44 1 c-3 -3 -12 -4 -19 -1 -8 3 -5 6
6 6 11 1 17 -2 13 -5z m956 -1 c-18 -2 -48 -2 -65 0 -18 2 -4 4 32 4 36 0 50
-2 33 -4z m354 -22 c9 -24 15 -29 34 -24 17 4 21 2 14 -5 -11 -12 -207 6 -200
18 3 4 17 6 32 4 24 -4 25 -3 8 5 -15 8 -9 9 25 7 25 -2 52 -6 60 -8 8 -3 12
-3 8 -1 -10 6 -10 33 0 33 4 0 13 -13 19 -29z m-220 3 c-3 -3 -12 -4 -19 -1
-8 3 -5 6 6 6 11 1 17 -2 13 -5z m306 -1 c-7 -2 -19 -2 -25 0 -7 3 -2 5 12 5
14 0 19 -2 13 -5z m-3777 -21 c-10 -2 -22 0 -28 6 -6 6 0 7 19 4 21 -5 23 -7
9 -10z m4224 8 c0 -5 23 -12 50 -16 56 -7 68 -22 18 -22 -18 1 -37 -1 -43 -3
-5 -2 -11 0 -12 6 -1 5 -12 13 -25 18 -17 6 -26 4 -35 -9 -9 -12 -13 -13 -13
-5 0 16 29 40 48 41 6 0 12 -4 12 -10z m3123 -32 c37 -36 59 -84 88 -193 l18
-70 -25 -18 c-13 -10 -24 -25 -24 -33 0 -8 -7 -14 -15 -14 -10 0 -15 -10 -15
-34 0 -54 17 -51 35 4 11 32 22 50 32 50 14 0 15 -13 10 -98 -3 -53 -9 -105
-13 -115 -8 -21 -24 -22 -24 -2 0 26 -16 16 -33 -20 -30 -62 -36 -49 -51 105
-2 19 -5 67 -6 105 -2 69 -2 69 -11 25 -4 -25 -11 -70 -16 -100 -6 -39 -12
-55 -23 -55 -9 0 -14 8 -12 20 1 11 7 76 13 145 7 72 17 135 25 148 8 12 10
22 5 22 -26 0 -39 -37 -56 -160 -21 -157 -14 -205 36 -223 23 -9 29 -18 29
-40 0 -18 10 -38 29 -55 15 -15 31 -39 35 -54 7 -32 31 -37 45 -10 5 9 15 52
22 95 7 42 16 77 19 77 15 0 -21 -246 -44 -302 -17 -39 -54 -88 -66 -88 -16 0
-51 43 -78 95 -59 112 -101 385 -89 578 6 93 36 179 79 224 28 30 39 29 81 -9z
m-7363 8 c0 -3 -4 -8 -10 -11 -5 -3 -10 -1 -10 4 0 6 5 11 10 11 6 0 10 -2 10
-4z m1940 -6 c-20 -13 -33 -13 -25 0 3 6 14 10 23 10 15 0 15 -2 2 -10z m1873
3 c-7 -2 -19 -2 -25 0 -7 3 -2 5 12 5 14 0 19 -2 13 -5z m432 -33 c3 -5 -3
-10 -14 -10 -12 0 -21 5 -21 10 0 6 6 10 14 10 8 0 18 -4 21 -10z m-4145 -4
c0 -11 -19 -15 -25 -6 -3 5 1 10 9 10 9 0 16 -2 16 -4z m3990 -3 c0 -1 -8 -7
-18 -12 -12 -6 -23 -5 -36 4 -16 12 -15 14 18 12 20 -1 36 -3 36 -4z m57 -29
c-3 -3 -12 -4 -19 -1 -8 3 -5 6 6 6 11 1 17 -2 13 -5z m-4137 -14 c0 -5 -10
-10 -22 -9 -22 0 -22 1 -3 9 11 5 21 9 23 9 1 1 2 -3 2 -9z m4226 -5 c18 -9
23 -15 12 -15 -24 0 -48 11 -48 21 0 12 3 12 36 -6z m227 8 c-7 -2 -21 -2 -30
0 -10 3 -4 5 12 5 17 0 24 -2 18 -5z m-443 -19 c41 -8 145 -35 230 -61 85 -25
214 -60 285 -79 72 -19 158 -44 192 -55 57 -19 63 -23 73 -57 11 -40 14 -102
5 -102 -3 0 -47 20 -98 44 -108 52 -317 101 -331 78 -10 -17 18 -30 89 -43
107 -18 208 -55 282 -101 l66 -42 -7 -230 c-9 -325 -36 -650 -56 -670 -7 -7
-18 -2 -36 19 -67 81 -116 149 -176 245 -58 93 -98 160 -211 355 -35 61 -71
121 -158 263 -89 145 -239 423 -239 442 0 13 2 13 90 -6z m-4313 -20 c-3 -3
-12 -4 -19 -1 -8 3 -5 6 6 6 11 1 17 -2 13 -5z m4673 -15 c0 -14 -17 -10 -23
5 -4 10 -1 13 9 9 7 -3 14 -9 14 -14z m-6320 -14 c0 -16 -17 -19 -44 -9 -26
10 -18 24 14 24 20 0 30 -5 30 -15z m140 5 c0 -5 -4 -10 -10 -10 -5 0 -10 5
-10 10 0 6 5 10 10 10 6 0 10 -4 10 -10z m3339 -122 c-28 -51 -56 -98 -61
-105 -5 -7 -19 -31 -31 -54 -21 -40 -26 -43 -107 -66 -118 -34 -278 -104 -339
-149 -49 -37 -62 -54 -42 -54 6 0 57 25 115 56 98 51 303 130 313 120 3 -3
-11 -31 -30 -63 -39 -66 -217 -400 -217 -408 0 -11 -111 -234 -145 -290 -19
-33 -42 -74 -50 -92 -8 -17 -19 -34 -24 -37 -5 -3 -21 -36 -37 -73 -41 -98
-54 -104 -84 -40 -43 93 -69 179 -95 317 -25 130 -28 171 -31 395 -2 138 0
264 4 280 6 20 20 36 43 47 19 9 77 38 129 64 52 25 131 64 175 86 103 52 212
90 378 133 72 18 143 38 157 43 40 15 36 -7 -21 -110z m-3136 95 c-13 -2 -33
-2 -45 0 -13 2 -3 4 22 4 25 0 35 -2 23 -4z m1256 -17 c9 -11 5 -13 -19 -12
-27 1 -28 2 -13 14 21 15 18 15 32 -2z m4911 -1 c10 -12 10 -15 -3 -15 -8 0
-17 7 -21 15 -3 8 -2 15 3 15 5 0 14 -7 21 -15z m-6860 -25 c-8 -16 -20 -20
-53 -18 l-42 1 45 7 45 7 -45 3 -45 3 50 7 c28 4 51 8 53 8 1 1 -2 -7 -8 -18z
m593 13 c-7 -2 -19 -2 -25 0 -7 3 -2 5 12 5 14 0 19 -2 13 -5z m107 -3 c0 -5
-16 -10 -35 -10 -19 0 -35 5 -35 10 0 6 16 10 35 10 19 0 35 -4 35 -10z m6295
-20 c-3 -5 -11 -10 -16 -10 -6 0 -7 5 -4 10 3 6 11 10 16 10 6 0 7 -4 4 -10z
m275 0 c0 -5 -7 -7 -15 -4 -8 4 -15 8 -15 10 0 2 7 4 15 4 8 0 15 -4 15 -10z
m-7293 -26 c-3 -3 -12 -4 -19 -1 -8 3 -5 6 6 6 11 1 17 -2 13 -5z m688 -4 c-3
-5 -13 -10 -21 -10 -8 0 -14 5 -14 10 0 6 9 10 21 10 11 0 17 -4 14 -10z
m6461 -15 c13 -13 13 -15 1 -15 -8 0 -28 7 -43 15 l-29 15 28 0 c16 0 35 -7
43 -15z m-5953 -22 c-13 -2 -33 -2 -45 0 -13 2 -3 4 22 4 25 0 35 -2 23 -4z
m6032 -13 c3 -5 1 -10 -4 -10 -6 0 -11 5 -11 10 0 6 2 10 4 10 3 0 8 -4 11
-10z m-5275 -15 c-7 -8 -18 -15 -24 -15 -6 0 -2 7 8 15 25 19 32 19 16 0z
m-1562 -2 c-10 -2 -26 -2 -35 0 -10 3 -2 5 17 5 19 0 27 -2 18 -5z m6887 -3
c3 -5 1 -10 -4 -10 -6 0 -11 5 -11 10 0 6 2 10 4 10 3 0 8 -4 11 -10z m-6902
-17 c-13 -2 -35 -2 -50 0 -16 2 -5 4 22 4 28 0 40 -2 28 -4z m-240 -30 c-7 -2
-21 -2 -30 0 -10 3 -4 5 12 5 17 0 24 -2 18 -5z m152 -54 c5 -5 -15 -9 -52 -9
-39 0 -63 4 -66 13 -3 9 10 11 52 9 31 -2 60 -8 66 -13z m7133 -23 c26 -14 99
-56 162 -95 63 -39 135 -82 158 -97 61 -36 462 -322 501 -355 11 -10 12 -33 7
-108 -16 -238 -50 -477 -86 -615 -11 -39 -29 -106 -40 -149 -26 -97 -68 -194
-79 -181 -4 5 -18 56 -31 114 -21 93 -104 361 -129 415 -5 11 -17 43 -27 70
-34 100 -262 616 -287 652 -5 6 -32 61 -62 120 -30 60 -73 136 -97 169 -72 98
-72 102 10 60z m151 -13 c-6 -6 -17 -9 -25 -6 -19 7 -10 19 15 19 15 0 17 -4
10 -13z m40 -22 c7 -5 9 -11 5 -14 -5 -3 -15 1 -22 9 -14 16 -5 18 17 5z
m-5899 -11 c0 -5 -5 -10 -11 -10 -5 0 -7 5 -4 10 3 6 8 10 11 10 2 0 4 -4 4
-10z m-2130 -39 c0 -11 6 -21 13 -24 9 -3 9 -9 0 -25 -8 -13 -9 -23 -3 -27 6
-3 10 -19 10 -36 0 -16 4 -29 9 -29 4 0 11 -24 14 -52 3 -29 9 -62 13 -73 4
-13 4 -17 -3 -10 -15 16 -34 91 -27 109 3 9 2 16 -2 16 -14 0 -32 51 -39 113
-4 38 -3 57 4 57 6 0 11 -9 11 -19z m8105 -9 c-7 -8 -35 7 -35 18 0 6 7 6 20
-2 10 -7 17 -14 15 -16z m35 -7 c0 -8 -4 -15 -10 -15 -5 0 -10 7 -10 15 0 8 5
15 10 15 6 0 10 -7 10 -15z m-4810 0 c0 -2 -44 -96 -99 -207 -126 -259 -186
-388 -186 -402 -1 -6 -5 -20 -10 -31 -97 -228 -132 -309 -175 -405 -28 -63
-71 -162 -94 -220 -24 -58 -57 -132 -73 -165 -17 -33 -38 -81 -48 -108 -10
-26 -28 -58 -41 -72 -21 -23 -23 -37 -34 -252 -20 -381 9 -1017 70 -1558 28
-246 47 -433 60 -570 16 -175 39 -355 61 -480 10 -60 24 -148 30 -195 5 -47
19 -116 29 -155 11 -38 36 -142 56 -230 20 -88 45 -189 55 -225 10 -36 26 -96
34 -134 9 -38 24 -85 34 -105 30 -59 35 -81 17 -81 -9 0 -24 4 -34 9 -9 6 -30
16 -47 24 -67 33 -254 137 -325 182 -19 13 -61 39 -92 59 -168 105 -510 422
-559 518 -23 45 -38 49 -37 11 0 -16 -5 -41 -12 -58 -6 -16 -14 -83 -17 -147
-6 -129 -12 -149 -37 -129 -9 8 -16 19 -16 25 0 6 -11 27 -24 46 -13 19 -38
71 -56 115 -18 44 -43 103 -56 130 -13 28 -35 82 -48 120 -13 39 -31 90 -39
115 -19 54 -52 175 -77 285 -10 44 -26 107 -35 140 -51 181 -92 376 -120 575
-54 370 -67 579 -72 1195 -6 631 6 985 43 1242 13 95 27 179 30 188 9 21 27
19 87 -12 74 -38 146 -37 262 4 129 46 221 93 295 154 127 104 513 362 620
415 36 17 130 76 209 129 80 53 170 109 200 124 31 15 76 40 101 56 101 65
170 98 170 80z m4910 -75 c0 -5 -7 -7 -15 -4 -8 4 -15 8 -15 10 0 2 7 4 15 4
8 0 15 -4 15 -10z m-8134 -107 c-11 -11 -19 6 -11 24 8 17 8 17 12 0 3 -10 2
-21 -1 -24z m8394 -33 c0 -5 -2 -10 -4 -10 -3 0 -8 5 -11 10 -3 6 -1 10 4 10
6 0 11 -4 11 -10z m-8270 -20 c0 -5 -4 -10 -10 -10 -5 0 -10 5 -10 10 0 6 5
10 10 10 6 0 10 -4 10 -10z m8270 -26 c0 -2 -7 -4 -15 -4 -8 0 -15 4 -15 10 0
5 7 7 15 4 8 -4 15 -8 15 -10z m-8413 -56 c6 -29 12 -71 6 -53 -3 11 -12 29
-19 40 -18 25 -19 54 -2 37 6 -6 13 -17 15 -24z m10240 -84 c7 -27 13 -73 13
-102 0 -46 -3 -54 -25 -64 -31 -14 -51 -68 -65 -171 -20 -155 -11 -240 31
-298 9 -12 8 -26 -6 -63 -34 -88 -49 -46 -61 164 -5 91 -2 166 10 275 18 157
58 319 79 312 6 -2 17 -26 24 -53z m-1680 30 c-3 -3 -12 -4 -19 -1 -8 3 -5 6
6 6 11 1 17 -2 13 -5z m-8527 -60 c0 -8 -4 -12 -10 -9 -5 3 -10 13 -10 21 0 8
5 12 10 9 6 -3 10 -13 10 -21z m8870 6 c0 -11 -4 -20 -10 -20 -5 0 -10 9 -10
20 0 11 5 20 10 20 6 0 10 -9 10 -20z m370 6 c0 -8 3 -22 7 -32 4 -11 2 -15
-7 -12 -15 5 -23 58 -9 58 5 0 9 -6 9 -14z m-170 -36 c0 -5 -2 -10 -4 -10 -3
0 -8 5 -11 10 -3 6 -1 10 4 10 6 0 11 -4 11 -10z m197 -32 c-3 -7 -5 -2 -5 12
0 14 2 19 5 13 2 -7 2 -19 0 -25z m-9260 0 c-3 -8 -6 -5 -6 6 -1 11 2 17 5 13
3 -3 4 -12 1 -19z m8893 12 c0 -5 -2 -10 -4 -10 -3 0 -8 5 -11 10 -3 6 -1 10
4 10 6 0 11 -4 11 -10z m337 -23 c15 6 16 4 6 -9 -7 -8 -10 -18 -6 -21 3 -4 1
-7 -5 -7 -7 0 -12 4 -12 10 0 6 -16 8 -38 5 -30 -4 -40 -1 -50 15 -11 19 -10
20 28 20 25 0 40 5 41 13 0 6 4 2 9 -10 7 -16 14 -21 27 -16z m443 23 c0 -5
-7 -10 -16 -10 -8 0 -12 5 -9 10 3 6 10 10 16 10 5 0 9 -4 9 -10z m150 0 c0
-5 -4 -10 -10 -10 -5 0 -10 5 -10 10 0 6 5 10 10 10 6 0 10 -4 10 -10z m-1100
-10 c0 -5 -4 -10 -9 -10 -6 0 -13 5 -16 10 -3 6 1 10 9 10 9 0 16 -4 16 -10z
m923 -31 c7 -27 -1 -49 -19 -49 -8 0 -14 -7 -14 -15 0 -8 -4 -15 -10 -15 -17
0 -11 18 14 37 18 15 21 23 15 41 -5 12 -5 22 0 22 5 0 11 -9 14 -21z m-863 1
c0 -5 7 -10 15 -10 8 0 15 -5 15 -11 0 -5 -5 -7 -10 -4 -6 3 -22 13 -38 21
-25 13 -26 14 -4 14 12 0 22 -4 22 -10z m-8743 -30 c1 -18 -2 -28 -7 -25 -15
9 -11 55 4 55 1 0 2 -14 3 -30z m8908 12 c-3 -3 -11 0 -18 7 -9 10 -8 11 6 5
10 -3 15 -9 12 -12z m658 -7 c-10 -13 -25 -24 -33 -24 -10 0 -5 8 13 24 36 32
43 32 20 0z m-410 -9 c13 5 16 2 11 -10 -7 -17 -39 -30 -54 -21 -6 4 -5 13 2
25 7 11 15 15 18 9 4 -5 14 -7 23 -3z m-175 -54 c2 -8 -8 -12 -27 -12 -30 0
-47 13 -37 29 8 12 59 -2 64 -17z m837 8 c3 -5 1 -10 -4 -10 -6 0 -11 5 -11
10 0 6 2 10 4 10 3 0 8 -4 11 -10z m363 -61 c4 -64 -12 -222 -30 -296 -14 -57
-34 -69 -44 -27 -8 33 2 231 16 304 18 96 53 107 58 19z m-498 37 c0 -7 -12
-16 -27 -19 -36 -7 -42 -1 -17 18 24 18 44 19 44 1z m-9655 -6 c3 -5 1 -10 -4
-10 -6 0 -11 5 -11 10 0 6 2 10 4 10 3 0 8 -4 11 -10z m9440 -20 c1 -10 -2
-17 -7 -14 -4 3 -8 15 -8 26 0 26 13 15 15 -12z m-39 -15 c-8 -16 -13 -51 -11
-88 1 -34 0 -42 -2 -17 -2 25 -8 49 -14 55 -5 5 -9 21 -9 36 0 25 8 32 42 38
4 0 1 -10 -6 -24z m-9381 5 c3 -5 1 -10 -4 -10 -6 0 -11 5 -11 10 0 6 2 10 4
10 3 0 8 -4 11 -10z m9797 -15 c3 -13 1 -22 -3 -19 -5 3 -9 -1 -10 -8 0 -7 -5
-2 -10 11 -8 21 -1 39 17 41 1 0 4 -11 6 -25z m-9746 -82 c-4 -4 -11 -1 -16 7
-16 25 -11 35 7 17 9 -9 13 -20 9 -24z m34 -46 c0 -5 -4 -5 -10 -2 -5 3 -10
14 -10 23 0 15 2 15 10 2 5 -8 10 -19 10 -23z m9730 11 c0 -19 -2 -20 -10 -8
-13 19 -13 30 0 30 6 0 10 -10 10 -22z m27 0 c-3 -8 -6 -5 -6 6 -1 11 2 17 5
13 3 -3 4 -12 1 -19z m-9601 -32 c16 -17 19 -66 4 -66 -5 0 -10 9 -10 20 0 11
-4 20 -10 20 -5 0 -10 9 -10 20 0 24 6 25 26 6z m-119 -28 c-3 -8 -6 -5 -6 6
-1 11 2 17 5 13 3 -3 4 -12 1 -19z m43 -40 c0 -19 2 -20 10 -8 8 13 10 13 10
-2 0 -9 3 -23 6 -32 3 -9 1 -16 -5 -16 -6 0 -11 5 -11 11 0 6 -7 17 -15 25
-17 17 -20 44 -5 44 6 0 10 -10 10 -22z m9217 -20 c-3 -8 -6 -5 -6 6 -1 11 2
17 5 13 3 -3 4 -12 1 -19z m13 -59 c0 -24 -4 -38 -10 -34 -5 3 -10 22 -10 41
0 19 5 34 10 34 6 0 10 -18 10 -41z m510 -19 c0 -11 -4 -20 -10 -20 -5 0 -10
9 -10 20 0 11 5 20 10 20 6 0 10 -9 10 -20z m-9650 -10 c6 -11 7 -20 3 -20 -5
0 -14 9 -21 20 -7 11 -8 20 -2 20 5 0 14 -9 20 -20z m70 -75 c0 -10 -49 19
-54 32 -4 9 4 7 24 -7 17 -12 30 -23 30 -25z m9597 20 c18 18 37 10 28 -13 -3
-8 -1 -18 5 -22 5 -3 11 -25 13 -48 1 -23 5 -42 8 -42 14 0 19 -73 8 -108 -6
-20 -14 -44 -17 -52 -2 -8 -6 -25 -8 -37 -1 -13 -6 -33 -10 -45 -4 -13 -8 -27
-9 -33 -2 -20 -35 -85 -43 -85 -5 0 -14 -22 -22 -49 -13 -49 -13 -49 -37 -33
-19 12 -26 13 -32 3 -6 -10 -10 -9 -14 4 -4 9 1 25 12 36 13 14 18 32 16 55
-1 22 2 34 10 34 18 0 28 32 14 41 -16 9 -4 39 15 39 17 0 32 60 22 85 -3 8
-1 15 5 15 6 0 7 5 4 10 -3 6 3 10 15 10 23 0 41 31 22 38 -7 2 -12 17 -12 33
0 16 -4 29 -10 29 -5 0 -10 5 -10 11 0 5 5 7 11 3 6 -3 4 8 -5 24 -17 32 -22
61 -8 48 4 -4 8 -12 8 -17 1 -5 2 -13 3 -19 0 -5 6 -10 12 -10 13 0 2 53 -12
58 -5 2 -8 18 -8 35 1 24 3 26 6 9 4 -20 6 -20 20 -7z m-9563 -61 c9 -3 14
-10 11 -14 -2 -4 9 -22 26 -40 17 -17 29 -34 26 -36 -3 -4 -42 36 -76 79 -14
18 -12 21 13 11z m171 -124 c3 -5 1 -10 -4 -10 -6 0 -11 5 -11 10 0 6 2 10 4
10 3 0 8 -4 11 -10z m55 -20 c0 -5 -4 -10 -9 -10 -6 0 -13 5 -16 10 -3 6 1 10
9 10 9 0 16 -4 16 -10z m-60 -20 c0 -5 -7 -7 -15 -4 -8 4 -15 8 -15 10 0 2 7
4 15 4 8 0 15 -4 15 -10z m130 -101 c0 -6 -4 -7 -10 -4 -5 3 -10 11 -10 16 0
6 5 7 10 4 6 -3 10 -11 10 -16z m145 -59 c3 -5 1 -10 -4 -10 -6 0 -11 5 -11
10 0 6 2 10 4 10 3 0 8 -4 11 -10z m9034 -201 c1 8 3 12 6 9 7 -7 -6 -88 -14
-88 -3 0 -6 24 -7 53 -1 34 1 45 7 32 4 -11 8 -14 8 -6z m-22 -121 c-3 -7 -5
-2 -5 12 0 14 2 19 5 13 2 -7 2 -19 0 -25z m-17 -30 c0 -4 -9 -8 -21 -8 -11 0
-18 4 -15 8 3 5 12 9 21 9 8 0 15 -4 15 -9z m-152 -1813 c20 -42 44 -151 45
-205 1 -66 -4 -100 -16 -112 -70 -68 -206 -178 -221 -178 -4 0 -6 21 -7 48 0
66 -25 257 -40 316 -15 56 -18 52 110 133 87 55 101 54 129 -2z m-8532 13 c16
-16 16 -19 -10 -50 -62 -76 -108 -161 -123 -225 -3 -13 -9 -23 -12 -23 -9 0
-146 75 -230 126 -35 21 -68 49 -74 62 -9 20 -7 26 19 47 74 61 166 85 311 82
81 -2 106 -6 119 -19z m54 -75 c0 -14 4 -42 9 -62 5 -20 17 -72 26 -116 9 -44
23 -105 31 -136 17 -68 17 -79 1 -79 -7 0 -62 31 -122 68 l-110 68 2 41 c2 49
39 128 93 198 44 57 70 63 70 18z m-562 -55 c22 -18 62 -46 89 -63 l50 -30
-15 -35 c-9 -19 -17 -39 -18 -45 -2 -5 -12 -35 -23 -65 -11 -30 -29 -99 -40
-153 -10 -54 -21 -101 -25 -104 -5 -6 -31 14 -123 94 -52 45 -76 91 -68 130
37 178 88 301 127 303 3 0 24 -15 46 -32z m8768 -93 c2 -16 8 -64 13 -105 5
-41 12 -91 16 -110 11 -60 -11 -129 -53 -167 -20 -18 -60 -55 -88 -81 -159
-149 -154 -145 -154 -119 0 13 3 27 7 31 4 3 7 14 8 24 1 9 12 69 24 132 32
173 40 216 56 324 9 54 18 103 21 108 4 6 34 23 68 39 l61 29 8 -38 c4 -20 10
-50 13 -67z m-8531 -64 c3 -12 19 -21 39 -25 19 -4 39 -13 46 -21 7 -8 19 -15
26 -15 8 0 14 -4 14 -9 0 -5 11 -12 25 -15 14 -4 25 -11 25 -16 0 -6 6 -10 14
-10 8 0 21 -6 28 -13 7 -6 30 -21 52 -32 21 -11 40 -26 43 -32 3 -7 13 -13 23
-13 11 0 21 -4 24 -8 6 -10 -30 -9 -40 1 -15 15 -24 6 -14 -14 7 -12 18 -18
26 -15 10 4 20 -6 31 -29 9 -19 25 -37 35 -41 10 -3 18 -14 18 -24 0 -10 4
-20 10 -22 5 -1 14 -23 19 -48 23 -106 34 -146 42 -154 5 -6 9 -22 9 -37 0
-15 4 -30 9 -33 4 -3 11 -22 14 -43 9 -56 12 -66 24 -88 6 -11 19 -47 28 -80
10 -33 37 -97 60 -142 l43 -83 -83 65 c-46 36 -86 65 -89 65 -3 0 -15 9 -26
20 -11 11 -17 20 -14 20 4 0 -10 11 -30 25 -45 30 -102 87 -98 98 1 5 -2 6 -7
2 -11 -6 -111 62 -111 76 0 5 -6 9 -14 9 -7 0 -20 17 -29 38 -14 32 -15 33
-10 7 6 -30 6 -30 -15 -11 -12 10 -19 23 -16 28 3 4 2 8 -3 7 -20 -3 -32 3
-65 34 -19 17 -63 55 -97 82 -35 28 -69 56 -76 63 -8 6 -19 12 -25 12 -6 0 -9
4 -5 9 3 5 -4 12 -15 16 -24 8 -24 4 -1 96 11 41 22 85 25 99 12 58 23 96 33
115 6 11 19 39 28 63 14 32 23 42 41 42 13 0 25 -8 29 -19z m395 -241 c0 -10
5 -22 10 -25 12 -8 13 -25 1 -25 -15 0 -41 48 -35 64 8 20 24 11 24 -14z
m1473 -247 c45 -35 87 -63 94 -63 6 0 13 -4 15 -9 8 -24 319 -231 345 -231 13
0 38 -29 31 -35 -3 -3 -25 2 -49 10 -24 9 -73 20 -109 25 -65 10 -202 35 -355
66 -44 8 -83 18 -87 22 -12 12 -36 153 -43 251 l-6 93 41 -33 c23 -19 78 -62
123 -96z m5340 10 c-4 -11 -3 -14 5 -9 8 5 10 2 6 -8 -3 -9 -10 -13 -15 -10
-12 7 -11 44 1 44 5 0 6 -7 3 -17z m-53 -27 c0 -8 -4 -18 -10 -21 -5 -3 -10 3
-10 14 0 12 5 21 10 21 6 0 10 -6 10 -14z m-108 -59 c-17 -18 -19 -26 -10 -35
9 -9 8 -12 -5 -12 -9 0 -17 -4 -17 -10 0 -5 -4 -10 -10 -10 -5 0 -10 12 -9 28
0 15 3 21 6 15 2 -7 9 -13 14 -13 4 0 6 7 3 15 -4 9 3 24 16 35 31 27 39 16
12 -13z m-75 -57 c-1 -11 -7 -20 -14 -20 -7 0 -13 -7 -13 -16 0 -22 -28 -47
-45 -40 -9 3 -12 0 -8 -10 4 -10 0 -12 -13 -7 -12 4 -15 3 -10 -5 4 -7 1 -12
-8 -12 -9 0 -16 6 -17 13 0 10 -2 10 -6 0 -2 -7 -16 -13 -29 -13 -13 0 -24 -5
-24 -11 0 -6 9 -9 20 -6 13 3 20 0 20 -9 0 -8 -6 -14 -14 -12 -8 2 -22 -6 -30
-17 -14 -18 -15 -18 -16 -2 0 24 -20 22 -20 -3 0 -14 7 -20 21 -20 11 0 27 -6
35 -14 21 -21 17 -46 -6 -46 -11 0 -20 5 -20 10 0 6 5 10 10 10 6 0 10 5 10
10 0 16 -48 11 -58 -6 -8 -14 -10 -14 -21 0 -22 26 -42 20 -35 -9 7 -27 -12
-36 -22 -10 -6 14 -8 13 -19 -1 -7 -11 -17 -14 -25 -9 -10 6 -7 13 11 27 l24
20 -30 -6 -30 -6 24 20 c13 11 29 20 37 20 8 0 14 5 14 10 0 6 9 10 19 10 11
0 22 4 26 9 3 6 26 20 50 32 25 12 45 26 45 31 0 4 9 8 19 8 10 0 21 6 24 13
3 6 22 21 43 32 22 11 46 27 54 37 20 23 29 23 27 -2z m83 -4 c0 -3 -4 -8 -10
-11 -5 -3 -10 -1 -10 4 0 6 5 11 10 11 6 0 10 -2 10 -4z m47 -61 c8 -8 19 -13
24 -10 5 4 9 -3 9 -14 0 -14 -6 -21 -20 -21 -13 0 -18 5 -14 15 4 8 -1 17 -10
21 -9 3 -16 10 -16 15 0 13 9 11 27 -6z m-67 -14 c0 -5 9 -11 20 -14 11 -3 20
-10 20 -16 0 -18 -24 -13 -43 9 -20 23 -21 30 -7 30 6 0 10 -4 10 -9z m-180
-68 c0 -21 -3 -24 -9 -14 -5 8 -7 20 -4 28 8 21 13 15 13 -14z m-5064 9 c6 -4
10 -22 8 -40 -2 -38 -13 -55 -16 -26 0 10 -2 24 -2 31 -1 6 -5 15 -9 19 -18
18 -3 31 19 16z m94 -26 c0 -3 -4 -8 -10 -11 -5 -3 -10 -1 -10 4 0 6 5 11 10
11 6 0 10 -2 10 -4z m4930 0 c0 -3 -4 -8 -10 -11 -5 -3 -10 -1 -10 4 0 6 5 11
10 11 6 0 10 -2 10 -4z m315 -26 c8 -13 -25 -13 -45 0 -12 8 -9 10 12 10 15 0
30 -4 33 -10z m-235 -42 c0 -16 -3 -19 -11 -11 -6 6 -8 16 -5 22 11 17 16 13
16 -11z m-324 0 c-4 7 -2 12 5 12 6 0 9 -8 6 -20 -3 -10 0 -21 7 -24 8 -3 8
-5 -1 -5 -6 -1 -15 4 -18 9 -5 8 -11 7 -21 -1 -11 -9 -14 -8 -14 8 0 27 11 35
28 20 13 -9 14 -9 8 1z m-4202 -15 c-5 -5 -11 -11 -14 -14 -3 -4 -11 -1 -18 7
-11 12 -8 14 14 14 15 0 23 -3 18 -7z m4150 -8 c-4 -8 -7 -15 -9 -15 -2 0 -5
7 -9 15 -3 9 0 15 9 15 9 0 12 -6 9 -15z m259 -1 c3 -3 -3 -16 -14 -27 -17
-19 -21 -20 -29 -7 -8 13 -14 12 -45 -4 -19 -11 -35 -23 -35 -28 0 -11 48 -10
55 2 9 15 25 12 25 -6 0 -8 -4 -12 -10 -9 -5 3 -10 1 -10 -4 0 -16 -49 -13
-65 3 -8 7 -17 25 -21 40 -6 26 -5 26 46 26 31 0 49 4 45 10 -7 11 47 14 58 4z
m227 2 c0 -2 -7 -7 -16 -10 -8 -3 -12 -2 -9 4 6 10 25 14 25 6z m120 -7 c0 -7
-16 -9 -45 -6 -64 6 -68 17 -7 17 31 0 52 -4 52 -11z m-4646 -20 c15 -13 -2
-23 -17 -11 -8 7 -16 10 -19 7 -3 -3 -11 2 -18 10 -12 14 -10 15 16 9 16 -3
33 -10 38 -15z m-644 -91 c0 -16 -4 -28 -9 -28 -9 0 -21 59 -20 105 0 29 0 29
14 -10 8 -22 15 -52 15 -67z m4635 92 c19 -8 19 -9 -2 -9 -12 -1 -25 -6 -28
-12 -4 -5 -12 -8 -18 -6 -7 2 -19 -4 -27 -13 -10 -12 -21 -15 -35 -9 -11 4
-14 8 -7 8 7 1 20 8 29 17 9 8 21 13 28 10 8 -3 16 2 19 10 6 16 12 16 41 4z
m355 -30 c0 -36 -2 -40 -25 -40 -30 0 -32 11 -5 30 11 8 20 22 20 32 0 10 2
18 5 18 3 0 5 -18 5 -40z m-4255 -20 c-3 -5 -12 -7 -20 -3 -21 7 -19 13 6 13
11 0 18 -4 14 -10z m3725 -25 c-7 -8 -19 -15 -27 -15 -8 0 -21 -7 -29 -15 -9
-8 -11 -15 -5 -15 6 0 11 -12 11 -27 l0 -28 -15 29 c-21 39 -19 44 18 66 40
25 66 27 47 5z m-3614 -15 c13 0 24 -5 24 -11 0 -6 -6 -9 -14 -6 -7 3 -18 1
-22 -3 -15 -15 -38 6 -29 26 5 13 9 15 12 7 3 -7 16 -13 29 -13z m3955 10 c23
-13 26 -40 4 -40 -18 0 -20 -16 -4 -26 6 -3 15 -1 19 6 5 8 9 7 14 -6 8 -21
-9 -34 -45 -34 -35 0 -42 9 -24 36 12 19 12 24 0 34 -12 10 -13 16 -4 26 14
17 15 17 40 4z m-127 -24 c18 7 27 -53 10 -67 -17 -14 -79 3 -80 22 0 20 50
72 54 54 2 -8 9 -12 16 -9z m-3685 -33 c25 -14 24 -14 -24 -11 -47 3 -69 13
-60 29 6 9 53 -1 84 -18z m-102 11 c-3 -3 -12 -4 -19 -1 -8 3 -5 6 6 6 11 1
17 -2 13 -5z m3441 -14 c7 -12 10 -26 6 -32 -4 -6 -3 -8 3 -5 6 4 13 -2 16
-13 4 -16 0 -19 -24 -17 -26 2 -43 17 -19 17 14 0 0 32 -23 53 -20 17 -20 17
4 17 14 0 30 -9 37 -20z m122 10 c0 -5 -7 -10 -15 -10 -8 0 -15 5 -15 10 0 6
7 10 15 10 8 0 15 -4 15 -10z m-3565 -28 c-3 -3 -11 0 -18 7 -9 10 -8 11 6 5
10 -3 15 -9 12 -12z m3352 -3 c-4 -15 -2 -19 9 -15 8 3 14 -1 14 -9 0 -8 -4
-15 -10 -15 -5 0 -10 -7 -10 -15 0 -22 -30 -18 -50 5 -10 12 -22 20 -26 19 -5
-1 -20 -1 -34 0 -24 2 -24 2 -5 13 19 11 91 36 109 37 4 1 6 -8 3 -20z m40 15
c-3 -3 -12 -4 -19 -1 -8 3 -5 6 6 6 11 1 17 -2 13 -5z m648 -5 c10 -15 -1 -23
-20 -15 -9 3 -13 10 -10 16 8 13 22 13 30 -1z m-4912 -19 c-3 -13 0 -20 8 -20
24 -1 51 -48 49 -88 -3 -70 0 -82 23 -93 17 -8 23 -20 25 -52 2 -23 9 -55 17
-71 16 -32 12 -48 -10 -39 -10 3 -15 -1 -15 -13 -1 -18 -1 -18 -11 -1 -9 15
-7 21 8 32 17 13 17 15 1 32 -17 17 -18 16 -19 -7 -1 -17 -3 -20 -6 -7 -2 9
-9 17 -15 17 -6 0 -9 20 -6 49 1 27 1 47 -2 44 -3 -2 -15 37 -28 89 -33 131
-36 148 -24 148 6 0 8 -9 5 -20z m1027 16 c0 -3 -4 -8 -10 -11 -5 -3 -10 -1
-10 4 0 6 5 11 10 11 6 0 10 -2 10 -4z m3099 -56 c10 0 24 -6 30 -14 10 -12 8
-18 -12 -31 -14 -9 -29 -15 -33 -14 -28 5 -84 -2 -84 -11 0 -5 9 -10 20 -10
11 0 20 -4 20 -10 0 -15 -60 -12 -61 3 0 9 -2 9 -6 -1 -7 -19 -23 -4 -23 24 0
13 -5 24 -11 24 -7 0 -8 -12 -4 -32 5 -25 4 -29 -5 -18 -8 12 -9 9 -4 -11 3
-15 1 -30 -5 -34 -8 -4 -11 14 -10 58 l2 65 36 5 c20 2 45 0 56 -4 18 -7 18
-8 2 -8 -10 -1 -25 -7 -32 -15 -12 -12 -12 -15 -1 -19 8 -3 23 -3 34 -1 14 4
18 13 16 34 -4 36 22 56 44 34 7 -8 22 -14 31 -14z m-3109 -17 c0 -27 -3 -34
-11 -26 -7 7 -9 23 -5 37 9 37 16 32 16 -11z m3397 15 c-3 -8 -6 -5 -6 6 -1
11 2 17 5 13 3 -3 4 -12 1 -19z m-3537 -2 c0 -33 -43 -49 -68 -24 -9 9 -12 8
-12 -5 0 -9 5 -17 11 -17 5 0 7 -5 4 -10 -10 -16 -37 18 -31 38 5 14 18 19 51
21 25 1 45 0 45 -3z m3920 -6 c11 -7 3 -10 -30 -10 -33 0 -41 3 -30 10 8 5 22
10 30 10 8 0 22 -5 30 -10z m-3547 -7 c-7 -2 -19 -2 -25 0 -7 3 -2 5 12 5 14
0 19 -2 13 -5z m3107 -105 c-11 -75 -38 -168 -50 -168 -6 0 -10 -6 -10 -14 0
-7 -9 -16 -20 -19 -11 -3 -20 -9 -19 -14 3 -20 -2 -34 -11 -28 -5 3 -7 0 -4
-9 4 -12 -10 -45 -34 -76 -1 -2 -7 2 -12 10 -8 13 -10 12 -10 -2 0 -10 -4 -18
-10 -18 -5 0 -10 -11 -10 -24 0 -13 -13 -38 -30 -56 -16 -18 -30 -36 -30 -41
0 -5 -7 -9 -15 -9 -8 0 -15 -7 -15 -15 0 -8 -4 -15 -8 -15 -4 0 -16 -14 -26
-30 -9 -17 -21 -28 -25 -26 -4 3 -16 -7 -26 -22 -11 -15 -38 -45 -60 -67 -22
-22 -58 -63 -80 -90 -48 -60 -65 -74 -87 -75 -10 0 -18 -7 -18 -16 0 -9 -9
-18 -20 -21 -11 -3 -20 -9 -20 -14 0 -5 -5 -9 -11 -9 -6 0 -35 -20 -66 -45
-30 -25 -59 -45 -64 -45 -4 0 -19 -9 -31 -21 -25 -23 -143 -99 -154 -99 -7 0
-64 -24 -104 -43 -14 -7 -48 -11 -76 -9 l-52 4 -6 58 c-9 78 14 169 75 295 47
99 78 155 90 165 4 3 28 46 54 95 26 50 51 92 56 93 5 2 9 12 9 22 0 9 11 43
25 73 35 80 84 270 80 312 -2 23 1 35 10 35 9 0 11 -17 9 -65 -3 -36 -5 -71
-7 -77 -1 -6 4 -13 12 -16 8 -3 11 0 7 7 -4 6 -5 11 -2 11 2 0 11 3 20 6 12 4
16 0 16 -15 0 -13 6 -21 18 -21 14 0 14 2 3 9 -12 8 -11 12 4 28 13 13 20 14
23 5 7 -23 24 -12 20 13 -3 14 0 25 6 26 7 0 6 3 -2 6 -6 2 -10 9 -6 14 3 5
-4 9 -15 9 -12 0 -21 5 -21 11 0 15 61 3 72 -14 11 -17 10 -47 -2 -47 -5 0
-10 -7 -10 -15 0 -8 -5 -15 -11 -15 -6 0 -8 -7 -5 -16 8 -22 -14 -135 -31
-155 -8 -9 -13 -41 -13 -77 0 -55 2 -62 19 -62 20 0 81 54 81 71 0 5 5 9 10 9
6 0 10 7 10 16 0 8 14 20 30 25 17 6 30 15 30 21 0 6 -7 8 -15 4 -8 -3 -15 -2
-15 2 1 11 26 42 35 42 15 0 64 59 71 85 6 26 20 33 26 13 3 -8 9 -8 24 1 14
9 15 11 2 7 -12 -3 -15 -1 -11 10 3 7 0 14 -6 14 -12 0 -15 39 -3 55 8 12 82
14 82 3 0 -5 19 -9 43 -9 l42 -1 -50 -9 c-30 -5 -54 -4 -61 2 -12 10 -44 2
-44 -11 0 -4 11 -11 24 -14 26 -6 44 -46 20 -46 -21 0 -17 -21 5 -27 12 -3 17
-11 14 -22 -3 -11 2 -21 13 -25 22 -8 31 1 16 16 -22 22 -14 41 12 34 28 -7
46 11 25 26 -10 7 -4 8 19 4 23 -4 38 -1 49 9 13 13 12 16 -9 24 -14 5 -28 5
-36 -2 -7 -5 -15 -7 -18 -4 -3 3 4 10 15 17 28 15 102 10 123 -7 14 -13 22
-10 66 23 28 20 53 36 58 34 15 -4 25 32 26 88 0 41 2 50 8 32 4 -15 4 -51 0
-82z m87 80 c-3 -8 -6 -5 -6 6 -1 11 2 17 5 13 3 -3 4 -12 1 -19z m121 13 c8
-3 0 -47 -14 -72 -17 -33 -37 -34 -42 -2 -2 12 -10 24 -18 27 -8 3 -13 2 -10
-2 3 -5 1 -22 -4 -38 -8 -29 -8 -29 -9 8 -1 29 -4 36 -16 32 -8 -4 -15 -12
-15 -19 0 -8 -4 -17 -10 -20 -6 -3 -10 5 -10 19 0 24 28 43 58 38 6 -2 12 4
12 13 0 9 -4 13 -10 10 -5 -3 -10 -1 -10 5 0 9 67 9 98 1z m-3258 -9 c0 -4 -9
-13 -21 -20 -12 -8 -18 -19 -15 -28 3 -8 1 -14 -3 -14 -21 0 -21 36 -1 52 23
19 40 23 40 10z m3027 -34 c-3 -8 -6 -5 -6 6 -1 11 2 17 5 13 3 -3 4 -12 1
-19z m371 -26 c7 -21 -40 2 -57 29 l-16 23 34 -19 c19 -11 36 -26 39 -33z
m-4631 6 c-3 -7 -5 -2 -5 12 0 14 2 19 5 13 2 -7 2 -19 0 -25z m3641 0 c-3
-23 -22 -27 -73 -15 -25 6 -45 -10 -45 -34 0 -11 6 -19 13 -20 6 0 2 -5 -11
-11 -23 -11 -45 -2 -25 10 6 4 13 20 15 37 2 25 9 31 43 41 65 20 87 18 83 -8z
m-2920 -44 c-3 -27 -4 -26 -9 8 -3 22 -1 34 4 29 5 -5 7 -21 5 -37z m3192 26
c0 -5 -4 -10 -10 -10 -5 0 -10 5 -10 10 0 6 5 10 10 10 6 0 10 -4 10 -10z m17
-12 c-3 -8 -6 -5 -6 6 -1 11 2 17 5 13 3 -3 4 -12 1 -19z m163 2 c0 -11 -7
-20 -15 -20 -18 0 -19 12 -3 28 16 16 18 15 18 -8z m507 4 c-3 -3 -12 -4 -19
-1 -8 3 -5 6 6 6 11 1 17 -2 13 -5z m33 -14 c-22 -7 -23 -8 -4 -9 12 -1 27 -8
34 -16 7 -8 16 -12 21 -9 5 3 9 2 9 -3 0 -12 -60 -37 -68 -28 -4 4 -7 12 -7
18 0 6 -11 14 -25 18 l-25 7 25 2 25 3 -25 5 -25 5 25 8 c14 4 34 7 45 7 16 0
15 -2 -5 -8z m-3700 -20 c0 -5 -5 -10 -11 -10 -5 0 -7 5 -4 10 3 6 8 10 11 10
2 0 4 -4 4 -10z m37 -22 c-3 -7 -5 -2 -5 12 0 14 2 19 5 13 2 -7 2 -19 0 -25z
m1245 7 c256 -30 419 -29 631 2 35 5 37 4 37 -21 0 -60 -69 -135 -162 -176
-119 -52 -370 -42 -504 22 -52 24 -194 152 -194 174 0 18 33 18 192 -1z m-949
-42 c0 -24 3 -46 8 -49 5 -3 9 9 9 25 0 17 5 31 11 31 7 0 9 -9 6 -22 -4 -12
-1 -29 6 -37 9 -12 9 -13 0 -7 -8 4 -13 1 -13 -9 0 -10 -8 -15 -22 -14 -45 4
-58 -1 -58 -21 0 -11 5 -20 10 -20 6 0 10 7 10 15 0 8 5 15 10 15 6 0 10 -5
10 -11 0 -6 9 -4 21 5 12 8 27 12 34 10 7 -3 16 4 20 16 6 20 8 19 25 -12 18
-32 18 -33 -1 -47 -27 -19 -24 -41 5 -41 16 0 27 -7 32 -22 6 -19 7 -19 16 -5
11 21 32 22 24 2 -3 -8 -1 -14 4 -12 13 3 100 -83 100 -99 0 -8 6 -11 15 -8 8
4 15 1 15 -5 0 -7 8 -15 18 -18 22 -9 139 -93 128 -93 -5 0 13 -12 40 -26 27
-14 65 -41 84 -60 20 -19 40 -34 44 -34 5 0 23 -12 41 -27 18 -16 47 -39 65
-52 31 -24 75 -62 114 -98 27 -26 89 -113 106 -148 20 -44 39 -115 40 -151 0
-24 -6 -34 -26 -43 -15 -6 -36 -9 -48 -5 -57 16 -276 110 -351 149 -47 25 -91
45 -99 45 -8 0 -16 4 -18 8 -1 5 -38 25 -80 45 -42 21 -83 43 -90 50 -7 6 -29
20 -48 29 -32 16 -66 36 -162 97 -21 12 -38 27 -38 32 0 5 -4 8 -9 7 -5 -2
-32 14 -60 35 -28 20 -53 37 -55 37 -3 0 -19 13 -37 29 -32 29 -32 52 -1 50
14 0 13 -2 -3 -10 -19 -8 -19 -9 -1 -6 11 1 20 9 21 18 2 12 -3 15 -19 11 -11
-3 -26 -9 -33 -14 -8 -6 -24 3 -48 26 -20 20 -39 36 -42 36 -7 0 -25 20 -77
83 -46 56 -59 80 -32 58 22 -19 30 5 13 39 -17 33 -13 40 19 40 13 0 25 4 28
8 3 5 -8 6 -25 4 -17 -3 -29 0 -29 7 0 12 3 13 45 16 17 1 33 -3 37 -9 13 -21
21 4 9 30 -13 29 -6 47 10 24 8 -11 8 -8 3 10 -6 24 -6 24 13 8 11 -10 25 -18
32 -18 7 0 9 -5 6 -10 -4 -6 -13 -9 -20 -8 -14 3 -15 1 -15 -31 0 -14 9 -20
35 -23 19 -2 35 0 35 4 0 4 -6 8 -14 8 -18 0 -29 16 -21 30 4 7 13 7 26 0 22
-12 26 -60 5 -60 -14 0 -30 -29 -21 -38 3 -3 21 2 40 11 34 16 35 16 35 -3 0
-24 31 -27 52 -6 8 8 23 16 34 19 16 4 16 5 -3 6 -17 1 -23 7 -23 25 0 14 -5
28 -10 31 -6 4 -4 12 5 21 20 21 20 58 0 50 -20 -7 -19 11 2 32 12 12 18 13
21 4 4 -14 28 -16 36 -3 11 16 -54 39 -86 30 -25 -7 -29 -5 -26 9 2 10 11 16
21 14 9 -2 17 1 17 6 0 5 11 12 24 14 19 4 23 1 20 -11 -3 -9 1 -6 7 6 6 12
19 21 28 20 12 -1 16 -11 14 -44z m-617 8 c-4 -6 -13 -11 -19 -11 -8 0 -7 3 2
9 8 5 10 14 6 22 -6 11 -5 11 5 2 7 -6 9 -16 6 -22z m3704 15 c0 -3 -4 -8 -10
-11 -5 -3 -10 -1 -10 4 0 6 5 11 10 11 6 0 10 -2 10 -4z m255 -26 c0 -8 -8
-16 -17 -18 -13 -2 -18 3 -18 18 0 15 5 20 18 18 9 -2 17 -10 17 -18z m-665
-10 c8 -5 11 -10 6 -10 -5 0 -3 -6 3 -14 9 -10 8 -15 -4 -20 -11 -4 -15 1 -15
18 0 14 -6 27 -12 29 -7 3 -8 6 -3 6 6 0 17 -4 25 -9z m-3803 -6 c-3 -3 -12
-4 -19 -1 -8 3 -5 6 6 6 11 1 17 -2 13 -5z m625 -21 c15 -37 21 -84 8 -63 -5
8 -10 23 -10 33 0 10 -3 16 -7 14 -5 -3 -9 6 -9 19 -2 32 4 30 18 -3z m558 7
c0 -5 -4 -10 -10 -10 -5 0 -10 5 -10 10 0 6 5 10 10 10 6 0 10 -4 10 -10z
m-1187 -7 c-7 -2 -19 -2 -25 0 -7 3 -2 5 12 5 14 0 19 -2 13 -5z m900 -33 c3
-11 2 -20 -3 -20 -4 0 -10 11 -12 25 -6 29 7 25 15 -5z m-373 10 c0 -5 -4 -10
-10 -10 -5 0 -10 5 -10 10 0 6 5 10 10 10 6 0 10 -4 10 -10z m500 0 c0 -5 -2
-10 -4 -10 -3 0 -8 5 -11 10 -3 6 -1 10 4 10 6 0 11 -4 11 -10z m-1038 -12
c-15 -15 -16 -54 -2 -63 12 -8 13 -62 1 -69 -5 -3 -11 1 -15 9 -10 27 -27 16
-21 -12 l6 -28 -15 25 c-10 16 -15 19 -16 10 0 -13 -1 -13 -11 0 -9 12 -10 11
-6 -7 3 -16 1 -20 -10 -16 -7 3 -12 8 -9 10 2 2 1 17 -4 31 -5 19 -3 31 6 40
12 11 14 9 15 -10 1 -17 2 -19 6 -5 2 9 18 32 34 49 16 18 29 36 29 40 0 5 5
8 12 8 9 0 9 -3 0 -12z m361 5 c-7 -2 -19 -2 -25 0 -7 3 -2 5 12 5 14 0 19 -2
13 -5z m341 -30 c-3 -10 -11 -28 -17 -41 -10 -20 -12 -21 -17 -6 -4 10 2 26
14 40 25 28 27 29 20 7z m-341 -10 c-7 -2 -19 -2 -25 0 -7 3 -2 5 12 5 14 0
19 -2 13 -5z m357 -48 c6 -8 9 -24 5 -37 -4 -15 -3 -19 3 -10 7 10 11 10 22
-3 11 -13 10 -14 -4 -9 -13 5 -15 2 -9 -12 4 -11 -5 -5 -20 12 -26 31 -37 74
-18 74 5 0 14 -7 21 -15z m-778 -120 c6 -28 -6 -34 -16 -9 -8 22 -7 34 3 34 5
0 11 -11 13 -25z m125 -42 c-3 -10 -5 -2 -5 17 0 19 2 27 5 18 2 -10 2 -26 0
-35z m-17 17 c0 -5 -4 -10 -10 -10 -5 0 -10 5 -10 10 0 6 5 10 10 10 6 0 10
-4 10 -10z m125 -11 c0 -9 -12 -14 -37 -14 -44 -1 -52 22 -10 28 37 5 47 3 47
-14z m-218 -21 c-3 -8 -6 -5 -6 6 -1 11 2 17 5 13 3 -3 4 -12 1 -19z m33 -33
c0 -8 -4 -15 -10 -15 -5 0 -10 7 -10 15 0 8 5 15 10 15 6 0 10 -7 10 -15z
m3012 -711 c4 -3 -2 -38 -13 -77 -18 -73 -53 -236 -84 -402 -9 -49 -26 -133
-37 -185 -10 -52 -30 -153 -43 -225 -13 -71 -31 -161 -40 -200 -8 -38 -22
-106 -31 -150 -8 -44 -21 -102 -28 -130 -8 -27 -17 -62 -20 -77 -9 -40 -46
-39 -46 1 0 29 35 205 65 326 8 33 28 134 45 225 17 91 40 212 51 270 11 58
26 143 35 190 8 47 21 119 29 160 7 41 19 112 26 157 14 93 15 94 49 110 30
14 35 15 42 7z m-832 -20 c0 -17 39 -132 152 -444 38 -107 90 -258 115 -335
25 -77 58 -180 75 -230 26 -80 59 -191 103 -340 22 -78 23 -117 1 -109 -7 3
-26 44 -41 92 -74 231 -141 425 -182 521 -73 174 -141 353 -191 496 -17 50
-42 119 -55 155 -14 36 -32 89 -40 118 -15 50 -15 54 3 72 24 24 60 26 60 4z"/>
<path d="M10246 9133 c-3 -3 -6 -66 -6 -139 0 -120 3 -141 30 -225 31 -94 60
-139 89 -139 10 0 12 3 6 8 -49 34 -99 197 -109 357 -4 71 -2 94 9 109 8 11
15 14 15 8 0 -7 5 -12 11 -12 5 0 7 4 4 10 -9 15 -41 30 -49 23z"/>
<path d="M10295 8975 c6 -107 30 -224 42 -211 3 3 0 20 -6 38 -5 18 -13 78
-16 133 -8 116 -12 145 -21 154 -3 3 -3 -48 1 -114z"/>
<path d="M4318 9003 c7 -3 16 -2 19 1 4 3 -2 6 -13 5 -11 0 -14 -3 -6 -6z"/>
<path d="M5983 8933 c26 -2 67 -2 90 0 23 2 2 3 -48 3 -49 0 -68 -1 -42 -3z"/>
<path d="M6508 8933 c18 -2 45 -2 60 0 15 2 0 4 -33 4 -33 0 -45 -2 -27 -4z"/>
<path d="M4428 8913 c6 -2 18 -2 25 0 6 3 1 5 -13 5 -14 0 -19 -2 -12 -5z"/>
<path d="M6523 8913 c26 -2 68 -2 95 0 26 2 4 3 -48 3 -52 0 -74 -1 -47 -3z"/>
<path d="M4070 8875 c-23 -25 -23 -25 -4 -40 18 -14 18 -14 -6 -15 -18 0 -26
-6 -27 -20 -1 -11 4 -20 13 -20 8 0 14 5 14 10 0 6 11 10 25 10 14 0 36 10 48
21 l22 22 -31 -6 c-39 -7 -45 -2 -33 30 13 35 7 37 -21 8z"/>
<path d="M3975 8850 c3 -5 8 -10 11 -10 2 0 4 5 4 10 0 6 -5 10 -11 10 -5 0
-7 -4 -4 -10z"/>
<path d="M8340 8480 c0 -5 10 -10 23 -10 18 0 19 2 7 10 -19 13 -30 13 -30 0z"/>
<path d="M8838 8293 c12 -2 32 -2 45 0 12 2 2 4 -23 4 -25 0 -35 -2 -22 -4z"/>
<path d="M9564 8004 c3 -9 6 -18 6 -20 0 -2 5 -4 11 -4 7 0 17 -6 23 -14 8
-10 17 -12 35 -5 l24 9 -23 25 c-27 29 -86 36 -76 9z"/>
<path d="M9620 7861 c0 -12 5 -21 10 -21 6 0 10 6 10 14 0 8 -4 18 -10 21 -5
3 -10 -3 -10 -14z"/>
<path d="M9930 7853 c0 -15 19 -37 26 -31 3 4 -1 14 -10 23 -9 9 -16 13 -16 8z"/>
<path d="M9955 7790 c3 -5 8 -10 11 -10 2 0 4 5 4 10 0 6 -5 10 -11 10 -5 0
-7 -4 -4 -10z"/>
<path d="M10818 7668 c-10 -10 -14 -18 -9 -18 10 0 36 29 30 34 -2 1 -12 -6
-21 -16z"/>
<path d="M10684 7600 c-1 -22 2 -40 7 -40 5 0 9 18 9 40 0 22 -3 40 -8 40 -4
0 -8 -18 -8 -40z"/>
<path d="M10754 7496 c1 -19 5 -38 9 -42 10 -10 9 48 -2 64 -5 8 -7 0 -7 -22z"/>
<path d="M10714 8454 c10 -9 16 -33 16 -62 0 -26 5 -54 11 -62 8 -11 9 2 6 48
-5 60 -18 92 -39 92 -5 0 -2 -7 6 -16z"/>
<path d="M3262 7310 c-14 -108 -53 -695 -51 -780 l1 -55 9 45 c5 25 13 137 19
250 5 113 14 257 20 321 9 91 10 282 2 219z"/>
<path d="M10760 6739 c0 -5 5 -7 10 -4 6 3 10 8 10 11 0 2 -4 4 -10 4 -5 0
-10 -5 -10 -11z"/>
<path d="M10755 6690 c4 -6 3 -16 -2 -23 -5 -7 -10 -25 -11 -42 -1 -23 1 -26
8 -15 5 8 10 23 10 33 0 10 4 15 10 12 6 -4 7 1 3 11 -4 12 -3 15 5 10 8 -5
10 -2 6 8 -3 9 -13 16 -21 16 -8 0 -11 -5 -8 -10z"/>
<path d="M10696 6553 c-11 -11 -6 -23 9 -23 8 0 15 4 15 9 0 13 -16 22 -24 14z"/>
<path d="M10675 6479 c22 -24 25 -24 25 -1 0 11 -8 18 -21 19 -20 2 -20 1 -4
-18z"/>
<path d="M1800 4084 c0 -18 -25 -46 -34 -37 -3 4 -6 1 -6 -6 0 -13 24 -41 34
-41 3 0 6 9 6 20 0 11 5 20 10 20 6 0 10 -9 10 -20 0 -11 5 -20 10 -20 6 0 10
-7 10 -16 0 -19 20 -40 46 -47 18 -5 17 -5 -3 -12 -15 -5 -23 -15 -23 -30 0
-13 -3 -30 -6 -39 -7 -17 -34 -22 -34 -6 0 6 -5 10 -10 10 -6 0 1 -23 16 -52
18 -35 24 -60 20 -80 -3 -15 -1 -28 4 -28 6 0 10 8 10 18 0 9 16 -11 36 -46
20 -35 33 -66 30 -69 -3 -4 -6 -1 -6 5 0 7 -7 12 -16 12 -9 0 -25 10 -36 23
l-20 22 4 -30 c2 -23 9 -31 28 -34 30 -4 41 -19 34 -46 -4 -17 -2 -16 16 5 18
21 21 22 15 5 -12 -36 -10 -39 23 -41 17 -1 32 2 32 7 0 5 -5 9 -10 9 -7 0 -7
7 0 20 6 11 15 18 21 15 5 -4 9 1 9 10 0 10 -5 15 -14 12 -7 -3 -18 4 -25 16
-12 25 -20 287 -8 287 4 0 7 -10 7 -22 0 -12 3 -19 6 -16 3 3 2 21 -1 40 -5
25 -15 39 -41 53 -37 20 -40 26 -23 57 8 15 8 19 0 14 -6 -4 -11 -2 -11 3 0 6
-9 11 -19 11 -11 0 -23 5 -26 10 -3 6 -17 10 -31 10 -26 0 -31 9 -12 28 9 9 8
12 -5 12 -9 0 -17 -7 -17 -16z m60 -64 c0 -11 5 -20 11 -20 5 0 7 -5 4 -10 -4
-7 -14 -2 -26 11 -23 27 -24 39 -4 39 8 0 15 -9 15 -20z"/>
<path d="M1953 3985 c-17 -19 -16 -25 2 -25 8 0 15 9 15 20 0 23 -1 24 -17 5z"/>
<path d="M1780 3964 c0 -8 5 -12 10 -9 6 3 10 10 10 16 0 5 -4 9 -10 9 -5 0
-10 -7 -10 -16z"/>
<path d="M1993 3700 c0 -47 2 -66 4 -42 2 23 2 61 0 85 -2 23 -4 4 -4 -43z"/>
<path d="M2100 3730 c0 -5 5 -10 11 -10 5 0 7 5 4 10 -3 6 -8 10 -11 10 -2 0
-4 -4 -4 -10z"/>
<path d="M2111 3701 c-8 -5 -9 -11 -3 -15 5 -3 12 1 16 9 6 17 6 18 -13 6z"/>
<path d="M1710 3675 c0 -8 4 -15 10 -15 5 0 7 7 4 15 -4 8 -8 15 -10 15 -2 0
-4 -7 -4 -15z"/>
<path d="M2150 3576 c0 -9 5 -16 10 -16 6 0 10 4 10 9 0 6 -4 13 -10 16 -5 3
-10 -1 -10 -9z"/>
<path d="M2080 3544 c0 -19 -20 -40 -46 -47 -10 -2 0 -5 24 -6 40 -1 43 1 41
22 -2 12 0 28 4 35 5 7 3 12 -7 12 -9 0 -16 -7 -16 -16z"/>
<path d="M2010 3470 c0 -5 12 -10 26 -10 14 0 23 4 19 10 -3 6 -15 10 -26 10
-10 0 -19 -4 -19 -10z"/>
<path d="M2036 3442 c-3 -4 4 -9 15 -9 23 -2 25 3 4 10 -8 4 -16 3 -19 -1z"/>
<path d="M8411 3374 c0 -11 3 -14 6 -6 3 7 2 16 -1 19 -3 4 -6 -2 -5 -13z"/>
<path d="M3572 3015 c0 -16 2 -22 5 -12 2 9 2 23 0 30 -3 6 -5 -1 -5 -18z"/>
<path d="M7057 2799 c6 -22 23 -26 23 -5 0 8 -6 16 -14 19 -10 4 -12 0 -9 -14z"/>
<path d="M7175 2811 c-3 -5 -1 -12 5 -16 5 -3 10 1 10 9 0 18 -6 21 -15 7z"/>
<path d="M7795 2802 c3 -8 5 -18 5 -23 0 -5 5 -9 10 -9 6 0 10 7 10 15 0 8 5
15 10 15 6 0 10 3 10 8 0 4 -11 7 -25 7 -17 0 -24 -4 -20 -13z"/>
<path d="M7456 2782 c-9 -27 -5 -34 10 -24 7 4 8 16 4 27 -7 19 -7 19 -14 -3z"/>
<path d="M7640 2790 c0 -5 -9 -10 -20 -10 -11 0 -20 -4 -20 -10 0 -15 11 -12
45 10 21 14 25 20 13 20 -10 0 -18 -4 -18 -10z"/>
<path d="M7037 2715 c-4 -8 -2 -17 3 -20 6 -4 10 3 10 14 0 25 -6 27 -13 6z"/>
<path d="M7628 2708 c7 -7 12 -20 12 -29 0 -9 10 -19 23 -23 33 -9 37 -8 37 9
0 24 -33 55 -59 55 -19 0 -22 -3 -13 -12z"/>
<path d="M7717 2713 c-4 -3 -7 -16 -6 -27 0 -19 1 -19 10 3 10 24 8 36 -4 24z"/>
<path d="M7460 2690 c0 -5 9 -10 20 -10 11 0 20 5 20 10 0 6 -9 10 -20 10 -11
0 -20 -4 -20 -10z"/>
<path d="M7733 2685 c-8 -22 6 -33 17 -15 13 20 12 30 0 30 -6 0 -13 -7 -17
-15z"/>
<path d="M7498 2653 c6 -2 18 -2 25 0 6 3 1 5 -13 5 -14 0 -19 -2 -12 -5z"/>
<path d="M7281 2584 c0 -11 3 -14 6 -6 3 7 2 16 -1 19 -3 4 -6 -2 -5 -13z"/>
<path d="M7597 2510 c-9 -11 -14 -20 -11 -20 13 0 44 21 44 30 0 16 -14 11
-33 -10z"/>
<path d="M8228 2923 c6 -2 18 -2 25 0 6 3 1 5 -13 5 -14 0 -19 -2 -12 -5z"/>
<path d="M4931 2754 c0 -11 3 -14 6 -6 3 7 2 16 -1 19 -3 4 -6 -2 -5 -13z"/>
<path d="M4868 2663 c6 -2 18 -2 25 0 6 3 1 5 -13 5 -14 0 -19 -2 -12 -5z"/>
<path d="M5052 2623 c-10 -4 -10 -8 -1 -19 15 -18 29 -18 29 0 0 18 -11 25
-28 19z"/>
<path d="M4540 2569 c0 -5 5 -7 10 -4 6 3 10 8 10 11 0 2 -4 4 -10 4 -5 0 -10
-5 -10 -11z"/>
<path d="M4590 2513 c0 -5 5 -15 10 -23 7 -11 10 -11 10 -2 0 7 4 10 10 7 6
-3 7 1 4 9 -6 16 -34 23 -34 9z"/>
<path d="M4770 2501 c0 -12 39 -25 48 -16 7 7 -17 25 -35 25 -7 0 -13 -4 -13
-9z"/>
<path d="M4715 2490 c4 -6 11 -8 16 -5 14 9 11 15 -7 15 -8 0 -12 -5 -9 -10z"/>
<path d="M4740 2474 c0 -7 27 -34 34 -34 3 0 6 9 6 20 0 13 -7 20 -20 20 -11
0 -20 -3 -20 -6z"/>
<path d="M4800 2410 c0 -5 5 -10 11 -10 5 0 7 5 4 10 -3 6 -8 10 -11 10 -2 0
-4 -4 -4 -10z"/>
<path d="M4430 2704 c0 -8 5 -12 10 -9 6 4 8 11 5 16 -9 14 -15 11 -15 -7z"/>
<path d="M3650 8950 c0 -5 5 -10 10 -10 6 0 10 5 10 10 0 6 -4 10 -10 10 -5 0
-10 -4 -10 -10z"/>
<path d="M2208 8933 c12 -2 30 -2 40 0 9 3 -1 5 -23 4 -22 0 -30 -2 -17 -4z"/>
<path d="M2193 8913 c15 -2 37 -2 50 0 12 2 0 4 -28 4 -27 0 -38 -2 -22 -4z"/>
<path d="M2773 8853 c9 -2 25 -2 35 0 9 3 1 5 -18 5 -19 0 -27 -2 -17 -5z"/>
<path d="M2773 8833 c9 -2 25 -2 35 0 9 3 1 5 -18 5 -19 0 -27 -2 -17 -5z"/>
<path d="M2059 8788 c-9 -17 -4 -18 98 -16 l108 2 -85 6 -85 6 85 3 c98 4 89
8 -28 14 -73 3 -84 1 -93 -15z"/>
<path d="M2138 8753 c23 -2 61 -2 85 0 23 2 4 4 -43 4 -47 0 -66 -2 -42 -4z"/>
<path d="M1460 8730 c0 -5 -19 -11 -42 -12 l-43 -1 37 -4 c24 -3 46 2 60 11
18 13 19 16 5 16 -9 0 -17 -4 -17 -10z"/>
<path d="M1398 8693 c12 -2 32 -2 45 0 12 2 2 4 -23 4 -25 0 -35 -2 -22 -4z"/>
<path d="M3220 8660 c0 -24 6 -25 26 -6 19 20 18 26 -6 26 -13 0 -20 -7 -20
-20z"/>
<path d="M958 8642 c-10 -2 -18 -12 -18 -23 0 -23 13 -25 30 -4 15 19 10 32
-12 27z"/>
<path d="M920 8569 c0 -5 5 -7 10 -4 6 3 10 8 10 11 0 2 -4 4 -10 4 -5 0 -10
-5 -10 -11z"/>
<path d="M1468 8553 c6 -2 18 -2 25 0 6 3 1 5 -13 5 -14 0 -19 -2 -12 -5z"/>
<path d="M7880 7000 c-90 -10 -332 -72 -412 -106 -32 -13 -62 -24 -68 -24 -14
0 -132 -58 -145 -71 -7 -7 -2 -16 15 -29 l25 -19 -22 -16 c-42 -29 -20 -95 27
-80 22 7 26 -5 10 -36 -6 -10 -7 -19 -2 -19 19 0 107 34 158 62 30 15 92 38
139 48 46 11 101 26 122 34 71 24 265 41 493 41 288 0 352 -12 513 -93 4 -2 7
10 7 26 0 26 4 31 35 36 19 4 35 11 35 17 0 5 -12 28 -27 50 -26 40 -26 42 -9
55 11 7 24 15 30 18 32 14 -104 68 -239 96 -65 13 -588 21 -685 10z"/>
<path d="M5351 6976 c7 -7 163 -56 178 -56 27 0 -3 19 -63 40 -51 17 -128 28
-115 16z"/>
<path d="M4675 6919 c-33 -5 -166 -18 -295 -29 -268 -23 -314 -32 -535 -101
-216 -69 -235 -82 -158 -114 28 -12 34 -19 28 -32 -17 -38 -11 -67 14 -73 36
-8 49 -35 28 -58 -32 -36 -17 -41 32 -11 48 30 201 75 361 105 41 7 172 19
290 25 196 11 236 10 445 -9 l230 -20 110 -47 c149 -64 155 -65 155 -26 0 26
8 35 55 66 30 19 55 42 55 50 0 9 -9 33 -19 54 -14 27 -17 41 -9 49 17 17 2
40 -34 47 -18 4 -79 22 -135 41 -56 18 -137 39 -180 48 -78 15 -335 47 -363
45 -8 -1 -42 -5 -75 -10z"/>
<path d="M7995 6636 c-101 -21 -209 -72 -262 -125 -85 -85 -119 -144 -61 -108
49 31 94 39 132 23 l36 -15 0 -72 c0 -87 -13 -135 -49 -176 -35 -40 -99 -83
-123 -83 -33 0 -75 28 -98 65 -12 19 -27 35 -35 35 -22 0 -85 -210 -78 -265 6
-60 39 -173 67 -231 59 -125 116 -199 202 -264 140 -106 202 -124 404 -118
119 4 146 8 225 36 184 64 231 103 323 271 57 103 87 191 104 308 10 67 9 90
-6 157 -40 177 -207 422 -325 477 -25 12 -68 32 -96 45 -29 14 -93 30 -152 39
-118 17 -127 17 -208 1z m76 -362 c21 -25 17 -93 -6 -110 -30 -22 -81 -18 -99
8 -21 29 -20 77 1 100 21 23 85 24 104 2z m274 -390 c9 -4 25 -24 35 -44 18
-35 18 -42 5 -79 -16 -46 -8 -57 29 -40 35 17 98 -3 127 -39 30 -38 22 -127
-16 -159 -35 -31 -87 -39 -117 -19 -31 20 -68 89 -68 127 0 16 -2 29 -5 29 -2
0 -26 -12 -52 -27 -40 -22 -60 -27 -123 -27 -69 1 -124 11 -175 34 -11 5 -32
14 -47 19 -37 14 -65 58 -51 80 8 13 29 16 110 18 114 1 134 9 209 76 62 56
94 68 139 51z"/>
<path d="M4635 6536 c-5 -2 -37 -10 -70 -17 -55 -12 -139 -50 -219 -100 l-31
-20 37 7 c45 7 81 0 102 -22 34 -33 11 -170 -37 -224 -55 -62 -87 -80 -138
-80 -28 0 -63 7 -78 15 -26 13 -61 67 -61 94 0 30 -29 4 -57 -51 -66 -133 -82
-232 -58 -379 24 -151 60 -276 100 -346 32 -53 134 -146 194 -174 115 -54 198
-72 361 -76 155 -5 155 -5 235 27 147 57 183 80 270 172 70 75 87 100 118 175
82 202 93 350 39 516 -37 115 -38 117 -110 225 -33 50 -82 106 -123 142 -91
78 -191 111 -354 116 -60 2 -114 2 -120 0z m38 -311 c34 -35 38 -56 16 -104
-22 -49 -48 -54 -79 -13 -17 21 -21 36 -17 69 8 74 36 91 80 48z m251 -457
c14 -18 17 -33 12 -71 -6 -56 -33 -105 -90 -164 -40 -43 -40 -43 -113 -43 -67
0 -81 4 -185 54 -113 53 -149 78 -129 91 6 3 38 0 71 -7 108 -22 239 26 285
105 33 56 54 70 94 63 20 -3 44 -15 55 -28z m180 -178 c26 -25 44 -99 35 -135
-10 -36 -46 -74 -87 -91 -28 -12 -36 -12 -60 0 -47 24 -55 41 -48 93 11 77 25
111 58 138 35 30 69 28 102 -5z"/>
<path d="M9232 6395 c0 -16 2 -22 5 -12 2 9 2 23 0 30 -3 6 -5 -1 -5 -18z"/>
<path d="M9262 6245 c0 -16 2 -22 5 -12 2 9 2 23 0 30 -3 6 -5 -1 -5 -18z"/>
<path d="M9282 6165 c0 -16 4 -41 8 -55 8 -24 8 -24 8 5 0 17 -4 41 -8 55 -8
24 -8 24 -8 -5z"/>
<path d="M9312 6040 c0 -14 2 -19 5 -12 2 6 2 18 0 25 -3 6 -5 1 -5 -13z"/>
<path d="M9336 5930 c4 -25 10 -49 14 -55 4 -5 15 -71 25 -145 27 -211 35
-242 31 -125 -4 95 -27 230 -47 267 -5 10 -9 28 -10 40 0 13 -5 32 -10 43 -6
14 -7 6 -3 -25z"/>
<path d="M6635 5442 c-3 -12 -2 -29 3 -38 8 -14 10 -12 14 9 7 34 -7 57 -17
29z"/>
<path d="M10796 4911 c-4 -7 -5 -15 -2 -18 9 -9 19 4 14 18 -4 11 -6 11 -12 0z"/>
<path d="M7555 4845 c-16 -8 -55 -17 -85 -21 -30 -3 -71 -13 -90 -20 -36 -14
-192 -53 -290 -72 -282 -58 -487 -77 -775 -76 -338 2 -475 16 -910 91 -213 36
-306 47 -337 40 -29 -8 -86 -81 -129 -167 -58 -118 -79 -318 -56 -530 21 -188
41 -237 131 -325 133 -128 324 -235 613 -341 131 -48 323 -92 323 -75 0 10
-33 22 -131 45 -109 27 -382 131 -509 196 -103 52 -251 159 -306 220 -69 76
-94 190 -94 423 0 180 30 314 97 425 32 53 56 83 71 87 31 8 184 -5 199 -17 7
-6 27 -11 45 -13 30 -3 96 -13 198 -30 19 -3 71 -12 115 -20 44 -8 130 -19
190 -25 153 -14 683 -26 780 -18 113 10 331 38 390 50 28 5 75 13 105 18 70
11 135 25 204 45 51 15 58 15 91 -1 20 -9 45 -28 56 -43 12 -14 24 -26 29 -26
4 0 26 -17 49 -37 22 -21 43 -38 48 -38 12 0 63 -53 63 -67 0 -7 7 -13 15 -13
8 0 15 -4 15 -9 0 -5 11 -23 25 -39 26 -31 49 -137 46 -212 -12 -309 -26 -358
-134 -456 -50 -46 -237 -165 -387 -247 -74 -40 -185 -81 -247 -92 -22 -3 -49
-13 -60 -20 -43 -33 98 -10 197 32 98 41 137 63 283 155 286 180 336 233 362
386 21 124 28 279 16 365 -13 91 -83 306 -116 357 -12 19 -25 47 -29 61 -3 15
-14 36 -23 47 -16 18 -21 19 -48 7z"/>
<path d="M10581 4746 c-28 -44 -27 -56 1 -20 13 16 26 31 30 32 11 5 10 22 -1
22 -5 0 -19 -15 -30 -34z"/>
<path d="M10780 4764 c0 -8 5 -12 10 -9 6 4 8 11 5 16 -9 14 -15 11 -15 -7z"/>
<path d="M10642 4748 c-14 -14 -16 -38 -3 -38 8 0 23 41 17 47 -1 1 -8 -3 -14
-9z"/>
<path d="M890 4666 c0 -20 13 -27 29 -16 11 6 9 10 -8 19 -17 10 -21 9 -21 -3z"/>
<path d="M10541 4654 c0 -11 3 -14 6 -6 3 7 2 16 -1 19 -3 4 -6 -2 -5 -13z"/>
<path d="M10806 4661 c-3 -5 1 -11 9 -14 9 -4 12 -1 8 9 -6 16 -10 17 -17 5z"/>
<path d="M1120 4649 c0 -11 39 -48 52 -49 4 0 -1 13 -10 30 -17 29 -42 41 -42
19z"/>
<path d="M10865 4630 c3 -5 10 -10 16 -10 5 0 9 5 9 10 0 6 -7 10 -16 10 -8 0
-12 -4 -9 -10z"/>
<path d="M10526 4615 c-9 -26 -7 -32 5 -12 6 10 9 21 6 23 -2 3 -7 -2 -11 -11z"/>
<path d="M10512 4560 c0 -14 2 -19 5 -12 2 6 2 18 0 25 -3 6 -5 1 -5 -13z"/>
<path d="M1065 4560 c3 -5 14 -10 23 -10 15 0 15 2 2 10 -20 13 -33 13 -25 0z"/>
<path d="M781 4474 c0 -11 3 -14 6 -6 3 7 2 16 -1 19 -3 4 -6 -2 -5 -13z"/>
<path d="M800 4444 c0 -6 9 -21 20 -34 11 -13 20 -19 20 -14 -1 13 -40 61 -40
48z"/>
<path d="M10815 4440 c-3 -6 1 -7 9 -4 18 7 21 14 7 14 -6 0 -13 -4 -16 -10z"/>
<path d="M780 4273 c13 -10 36 -30 52 -45 15 -14 30 -23 32 -19 5 7 -87 81
-101 81 -4 0 4 -8 17 -17z"/>
<path d="M9065 3450 c-3 -5 -1 -18 4 -27 9 -16 10 -14 11 10 0 28 -5 34 -15
17z"/>
<path d="M5983 3343 c9 -2 23 -2 30 0 6 3 -1 5 -18 5 -16 0 -22 -2 -12 -5z"/>
<path d="M8980 3329 c0 -5 5 -7 10 -4 6 3 10 8 10 11 0 2 -4 4 -10 4 -5 0 -10
-5 -10 -11z"/>
<path d="M1944 3266 c-11 -8 -36 -16 -55 -19 l-34 -4 35 -1 c21 -1 45 6 60 18
29 23 24 27 -6 6z"/>
<path d="M8823 3160 c-3 -11 -14 -20 -24 -20 -11 0 -19 -4 -19 -10 0 -14 47
-12 54 3 5 9 7 9 12 -1 9 -19 24 -4 24 24 0 31 -39 34 -47 4z"/>
<path d="M8880 3169 c0 -5 5 -7 10 -4 6 3 10 8 10 11 0 2 -4 4 -10 4 -5 0 -10
-5 -10 -11z"/>
<path d="M8523 3084 c-1 -31 -7 -62 -13 -69 -8 -9 -8 -15 0 -20 17 -11 11 -23
-12 -27 -17 -2 -24 -11 -26 -31 -3 -26 -2 -28 18 -17 12 6 29 9 37 6 27 -11
53 4 53 30 0 18 -5 24 -21 24 -11 0 -17 5 -14 10 4 6 12 9 18 8 7 -1 24 1 40
5 20 6 27 13 27 33 0 20 -5 25 -22 24 -54 -5 -58 -2 -58 40 0 25 -5 40 -12 40
-9 0 -14 -19 -15 -56z m52 -43 c7 -12 -12 -24 -25 -16 -11 7 -4 25 10 25 5 0
11 -4 15 -9z"/>
<path d="M9527 3078 c22 -96 31 -126 32 -104 1 28 -32 166 -40 166 -3 0 0 -28
8 -62z"/>
<path d="M8821 3094 c0 -11 3 -14 6 -6 3 7 2 16 -1 19 -3 4 -6 -2 -5 -13z"/>
<path d="M2220 3038 c-46 -10 -77 -28 -48 -28 20 0 80 20 93 31 5 5 7 9 5 8
-3 -1 -25 -6 -50 -11z"/>
<path d="M8760 3010 c0 -5 5 -10 11 -10 5 0 7 5 4 10 -3 6 -8 10 -11 10 -2 0
-4 -4 -4 -10z"/>
<path d="M9566 2910 c4 -25 10 -88 14 -140 4 -52 7 -86 8 -75 1 11 9 33 17 49
14 26 14 31 1 38 -8 5 -17 33 -21 70 -4 35 -12 72 -16 83 -6 13 -7 5 -3 -25z"/>
<path d="M9632 2810 c0 -14 2 -19 5 -12 2 6 2 18 0 25 -3 6 -5 1 -5 -13z"/>
<path d="M7920 2780 c0 -5 5 -10 11 -10 5 0 7 5 4 10 -3 6 -8 10 -11 10 -2 0
-4 -4 -4 -10z"/>
<path d="M8000 2771 c0 -6 5 -13 10 -16 6 -3 10 1 10 9 0 9 -4 16 -10 16 -5 0
-10 -4 -10 -9z"/>
<path d="M7886 2715 c-9 -26 -7 -32 5 -12 6 10 9 21 6 23 -2 3 -7 -2 -11 -11z"/>
<path d="M7911 2713 c0 -12 -4 -30 -7 -40 -6 -15 -3 -14 15 4 21 23 28 39 12
28 -5 -3 -12 3 -14 12 -4 14 -5 13 -6 -4z"/>
<path d="M4230 2709 c0 -5 5 -7 10 -4 6 3 10 8 10 11 0 2 -4 4 -10 4 -5 0 -10
-5 -10 -11z"/>
<path d="M8040 2709 c0 -5 5 -7 10 -4 6 3 10 8 10 11 0 2 -4 4 -10 4 -5 0 -10
-5 -10 -11z"/>
<path d="M7960 2670 c0 -5 6 -10 14 -10 8 0 18 5 21 10 3 6 -3 10 -14 10 -12
0 -21 -4 -21 -10z"/>
<path d="M8183 2640 c2 -24 13 -26 21 -4 8 22 8 24 -8 24 -9 0 -14 -9 -13 -20z"/>
<path d="M7800 2590 c0 -5 7 -10 15 -10 8 0 15 5 15 10 0 6 -7 10 -15 10 -8 0
-15 -4 -15 -10z"/>
<path d="M8220 2549 c0 -5 5 -7 10 -4 6 3 10 8 10 11 0 2 -4 4 -10 4 -5 0 -10
-5 -10 -11z"/>
<path d="M7703 2449 c-7 -7 -13 -21 -13 -32 0 -17 1 -17 16 -3 8 9 14 23 12
32 -2 12 -5 13 -15 3z"/>
<path d="M4180 2430 c0 -5 9 -10 20 -10 11 0 20 5 20 10 0 6 -9 10 -20 10 -11
0 -20 -4 -20 -10z"/>
<path d="M3765 2420 c-3 -5 -1 -10 4 -10 6 0 11 5 11 10 0 6 -2 10 -4 10 -3 0
-8 -4 -11 -10z"/>
<path d="M3605 2410 c3 -5 8 -10 11 -10 2 0 4 5 4 10 0 6 -5 10 -11 10 -5 0
-7 -4 -4 -10z"/>
<path d="M3505 2390 c-17 -8 -16 -8 8 -7 15 1 27 5 27 9 0 10 -9 9 -35 -2z"/>
<path d="M4565 2390 c3 -5 10 -10 16 -10 5 0 9 5 9 10 0 6 -7 10 -16 10 -8 0
-12 -4 -9 -10z"/>
<path d="M3810 2362 c0 -14 6 -22 16 -22 14 0 15 3 3 18 -7 9 -15 19 -16 21
-2 2 -3 -5 -3 -17z"/>
<path d="M7615 2350 c3 -5 -2 -10 -12 -10 -14 0 -15 -2 -4 -9 9 -6 19 -4 28 4
17 18 17 25 -3 25 -8 0 -12 -4 -9 -10z"/>
<path d="M3931 2321 c-1 -24 2 -32 9 -25 7 7 7 19 1 35 -9 23 -10 22 -10 -10z"/>
<path d="M7730 2340 c0 -13 18 -22 24 -11 3 5 -1 11 -9 15 -8 3 -15 1 -15 -4z"/>
<path d="M3858 2333 c-22 -5 -23 -17 -3 -33 20 -16 45 -5 45 20 0 20 -8 22
-42 13z"/>
<path d="M4198 2313 c12 -2 32 -2 45 0 12 2 2 4 -23 4 -25 0 -35 -2 -22 -4z"/>
<path d="M3770 2290 c-14 -9 -7 -14 14 -11 4 1 14 -3 21 -9 11 -9 12 -7 8 9
-6 23 -20 26 -43 11z"/>
<path d="M4171 2291 c-12 -8 -10 -11 11 -16 14 -4 39 -5 54 -2 22 3 18 5 -16
7 l-45 3 35 7 c35 7 35 7 5 9 -16 0 -37 -3 -44 -8z"/>
<path d="M4421 2296 c2 -2 26 -6 53 -9 30 -3 43 -1 35 4 -13 8 -97 13 -88 5z"/>
<path d="M4697 2281 c-4 -17 -3 -21 5 -13 5 5 8 16 6 23 -3 8 -7 3 -11 -10z"/>
<path d="M3972 2268 c-14 -14 -17 -108 -3 -108 13 0 32 26 24 33 -3 4 1 7 10
7 10 0 17 -4 17 -10 0 -5 6 -10 14 -10 12 0 11 8 -2 50 -17 50 -36 62 -60 38z"/>
<path d="M4110 2270 c-25 -6 -25 -6 8 -18 26 -9 32 -8 32 3 0 19 -11 23 -40
15z"/>
<path d="M3880 2251 c0 -6 5 -13 10 -16 6 -3 10 1 10 9 0 9 -4 16 -10 16 -5 0
-10 -4 -10 -9z"/>
<path d="M3818 2243 c7 -3 16 -2 19 1 4 3 -2 6 -13 5 -11 0 -14 -3 -6 -6z"/>
<path d="M7661 2194 c0 -11 3 -14 6 -6 3 7 2 16 -1 19 -3 4 -6 -2 -5 -13z"/>
<path d="M3987 2163 c-12 -11 -8 -23 7 -23 8 0 16 7 20 15 5 15 -14 21 -27 8z"/>
<path d="M4349 2011 c7 -5 17 -15 22 -22 7 -11 9 -9 9 6 0 14 -7 21 -22 22
-16 2 -19 0 -9 -6z"/>
<path d="M4404 1985 c-17 -13 -17 -14 -2 -15 9 0 20 5 23 10 4 6 10 8 15 5 5
-3 11 -1 15 5 9 15 -29 12 -51 -5z"/>
<path d="M4467 1903 c8 -52 13 -54 13 -5 0 23 -4 42 -9 42 -6 0 -7 -17 -4 -37z"/>
<path d="M4432 1800 c0 -14 2 -19 5 -12 2 6 2 18 0 25 -3 6 -5 1 -5 -13z"/>
<path d="M4480 1691 c0 -6 5 -13 10 -16 6 -3 10 1 10 9 0 9 -4 16 -10 16 -5 0
-10 -4 -10 -9z"/>
<path d="M4598 1643 c12 -2 32 -2 45 0 12 2 2 4 -23 4 -25 0 -35 -2 -22 -4z"/>
<path d="M4442 1628 c-16 -16 -15 -30 3 -64 11 -21 15 -24 15 -10 0 12 5 16
16 12 12 -4 14 -1 9 14 -4 11 -2 20 4 20 6 0 11 7 11 16 0 10 -6 14 -15 10 -8
-3 -15 -1 -15 4 0 14 -14 12 -28 -2z"/>
<path d="M4417 1413 c6 -70 9 -83 23 -83 14 0 13 66 -2 107 -18 50 -27 40 -21
-24z"/>
<path d="M4290 1390 c0 -5 5 -10 11 -10 5 0 7 5 4 10 -3 6 -8 10 -11 10 -2 0
-4 -4 -4 -10z"/>
<path d="M4271 1286 c-9 -11 -10 -20 -1 -35 15 -28 17 -27 22 14 4 37 -2 44
-21 21z"/>
<path d="M4482 1120 c0 -14 2 -19 5 -12 2 6 2 18 0 25 -3 6 -5 1 -5 -13z"/>
<path d="M4295 950 c4 -6 11 -8 16 -5 14 9 11 15 -7 15 -8 0 -12 -5 -9 -10z"/>
<path d="M4593 953 c9 -2 23 -2 30 0 6 3 -1 5 -18 5 -16 0 -22 -2 -12 -5z"/>
<path d="M4563 928 c-15 -7 -23 -20 -23 -36 l0 -25 23 21 c12 11 40 22 62 25
l40 4 -45 2 c-35 2 -41 4 -25 11 13 5 14 9 5 9 -8 0 -25 -5 -37 -11z"/>
<path d="M4360 790 c0 -5 9 -10 20 -10 11 0 20 5 20 10 0 6 -9 10 -20 10 -11
0 -20 -4 -20 -10z"/>
<path d="M4495 750 c-8 -24 -38 -42 -59 -34 -8 3 -19 -3 -25 -15 -12 -22 -15
-92 -3 -76 4 6 30 10 58 10 59 1 96 21 71 40 -13 10 -13 14 3 35 17 23 17 24
-5 42 -29 23 -32 23 -40 -2z m-15 -70 c4 0 10 -7 14 -15 4 -12 -3 -15 -35 -15
-37 0 -39 1 -29 21 7 12 17 18 27 15 8 -3 18 -6 23 -6z"/>
<path d="M4126 624 c-9 -24 -7 -44 4 -44 6 0 10 9 10 20 0 11 5 20 11 20 5 0
7 5 4 10 -9 15 -22 12 -29 -6z"/>
<path d="M4500 620 c0 -5 -16 -10 -35 -10 -44 0 -114 -30 -120 -51 -3 -10 -12
-20 -20 -23 -8 -3 -15 -12 -15 -21 0 -8 -9 -15 -19 -15 -11 0 -22 -8 -24 -17
-4 -14 -5 -12 -6 5 0 12 -6 22 -12 22 -6 0 -9 -6 -6 -14 3 -8 -2 -16 -13 -19
-13 -3 -20 -16 -22 -38 -2 -24 -10 -37 -25 -44 -12 -5 -24 -14 -26 -20 -2 -5
-3 -2 -1 8 2 12 -2 17 -11 13 -9 -3 -12 0 -8 10 3 7 9 14 14 14 5 0 9 10 9 22
l0 21 -22 -20 c-23 -20 -58 -27 -58 -11 0 4 5 8 10 8 6 0 10 9 10 20 0 15 7
20 25 20 14 0 25 5 25 11 0 21 -55 4 -66 -21 -16 -34 -27 -101 -14 -78 13 22
43 12 32 -10 -11 -25 -8 -57 6 -54 9 1 9 -3 0 -18 -7 -11 -19 -18 -26 -15 -18
7 -26 -20 -12 -44 9 -17 8 -21 -5 -21 -10 0 -13 5 -9 13 6 9 3 8 -8 -1 -9 -7
-20 -28 -24 -45 -15 -65 -20 -62 105 -65 69 -2 121 -8 130 -15 12 -10 13 -9 7
2 -6 10 -4 12 11 7 11 -3 39 1 63 9 54 19 73 19 36 0 -15 -8 -35 -15 -42 -15
-8 0 -17 -7 -20 -15 -4 -8 -12 -15 -18 -15 -7 0 -48 -19 -91 -42 l-78 -43 289
-3 c276 -2 291 -1 342 19 29 12 58 31 64 42 12 23 2 170 -13 199 -5 10 -6 18
-2 18 4 0 18 -19 30 -42 17 -30 20 -44 12 -54 -6 -7 -9 -19 -6 -26 4 -8 6 -7
6 5 1 9 5 16 10 15 5 -2 9 1 9 5 0 4 8 19 17 33 17 26 13 44 -11 44 -16 0 -19
26 -3 35 5 4 19 -1 30 -11 15 -14 19 -14 19 -3 0 24 -21 39 -40 29 -14 -7 -19
-5 -23 10 -5 20 -47 29 -47 10 0 -5 -10 -10 -22 -10 -13 0 -30 -5 -38 -10 -12
-8 -11 -10 7 -10 12 0 25 -5 29 -11 4 -7 0 -9 -14 -5 -12 4 -40 2 -63 -4 -42
-11 -68 -6 -33 7 10 3 23 12 27 20 4 7 19 13 32 13 29 0 42 17 18 23 -12 3 -8
7 15 12 44 10 34 18 -12 10 -20 -4 -36 -13 -36 -20 0 -8 -9 -17 -20 -20 -11
-4 -18 -11 -15 -16 4 -5 -1 -9 -9 -9 -9 0 -16 4 -16 9 0 5 -10 11 -21 14 -20
5 -20 7 -6 21 9 9 28 16 44 17 27 0 27 1 6 11 -13 6 -23 19 -23 30 0 13 -7 18
-30 18 -16 0 -30 -4 -30 -9 0 -5 -13 -14 -30 -20 -34 -11 -34 -11 -19 22 17
37 51 49 107 37 26 -6 95 -19 154 -29 87 -14 108 -15 112 -5 3 7 1 16 -5 20
-6 3 -8 12 -5 19 3 10 -14 15 -70 20 -40 4 -83 5 -95 2 -12 -3 -22 0 -26 9 -3
8 -12 14 -20 14 -10 0 -12 6 -8 20 5 14 2 20 -10 20 -8 0 -18 7 -21 15 -7 17
-64 21 -64 5 0 -5 -9 -10 -20 -10 -11 0 -20 5 -20 10 0 21 -19 8 -29 -20 -5
-16 -15 -30 -20 -30 -6 0 -19 -9 -30 -21 -10 -11 -27 -19 -37 -18 -11 2 -29
-2 -41 -9 -26 -14 -56 -5 -49 15 3 8 6 17 6 19 0 2 22 4 50 4 l50 0 30 60 c33
66 34 70 20 70 -5 0 -10 -4 -10 -10z m-128 -72 c-7 -7 -12 -8 -12 -2 0 14 12
26 19 19 2 -3 -1 -11 -7 -17z m248 -40 c0 -6 -6 -5 -15 2 -8 7 -15 14 -15 16
0 2 7 1 15 -2 8 -4 15 -11 15 -16z m-300 -55 c0 -5 -5 -15 -10 -23 -8 -12 -10
-11 -10 8 0 12 5 22 10 22 6 0 10 -3 10 -7z m278 -173 c7 0 10 -4 7 -10 -7
-12 -75 -14 -75 -2 0 16 14 23 35 18 11 -3 26 -6 33 -6z m22 -29 c0 -14 -18
-23 -31 -15 -8 4 -7 9 2 15 18 11 29 11 29 0z m-505 -11 c3 -5 1 -10 -4 -10
-6 0 -11 5 -11 10 0 6 2 10 4 10 3 0 8 -4 11 -10z m455 -15 c0 -9 -44 -23 -54
-17 -5 3 -1 9 10 13 23 9 44 11 44 4z m-87 -32 c-7 -2 -19 -2 -25 0 -7 3 -2 5
12 5 14 0 19 -2 13 -5z m-20 -20 c-7 -2 -19 -2 -25 0 -7 3 -2 5 12 5 14 0 19
-2 13 -5z m-98 -10 c-11 -3 -26 -10 -32 -15 -9 -7 -13 -7 -13 0 0 13 18 21 45
20 l20 0 -20 -5z"/>
<path d="M4598 613 c12 -2 32 -2 45 0 12 2 2 4 -23 4 -25 0 -35 -2 -22 -4z"/>
<path d="M4598 593 c12 -2 32 -2 45 0 12 2 2 4 -23 4 -25 0 -35 -2 -22 -4z"/>
<path d="M6536 472 c-8 -14 6 -61 21 -67 20 -7 27 0 19 20 -3 9 -10 13 -16 10
-5 -3 -10 -1 -10 4 0 6 5 11 10 11 6 0 10 4 10 9 0 11 -28 22 -34 13z"/>
<path d="M7640 420 c16 -5 19 -8 8 -9 -9 -1 -20 -6 -24 -12 -5 -8 4 -10 29 -7
20 2 33 0 30 -5 -3 -5 3 -7 12 -5 24 4 32 28 10 28 -9 0 -13 5 -10 10 4 6 -11
10 -37 9 -36 -1 -39 -2 -18 -9z"/>
<path d="M5020 390 l45 -7 -45 -3 c-25 -1 -37 -4 -26 -7 10 -3 39 -2 65 2 37
6 42 9 26 16 -11 4 -40 7 -65 7 l-45 -1 45 -7z"/>
<path d="M6017 393 c-15 -15 -4 -18 58 -15 36 2 63 8 59 13 -6 10 -107 12
-117 2z"/>
<path d="M5960 380 c0 -5 5 -10 10 -10 6 0 10 5 10 10 0 6 -4 10 -10 10 -5 0
-10 -4 -10 -10z"/>
<path d="M5308 373 c7 -3 16 -2 19 1 4 3 -2 6 -13 5 -11 0 -14 -3 -6 -6z"/>
<path d="M7770 360 c0 -5 16 -10 35 -10 19 0 35 5 35 10 0 6 -16 10 -35 10
-19 0 -35 -4 -35 -10z"/>
<path d="M4998 353 c12 -2 32 -2 45 0 12 2 2 4 -23 4 -25 0 -35 -2 -22 -4z"/>
<path d="M5718 353 c12 -2 32 -2 45 0 12 2 2 4 -23 4 -25 0 -35 -2 -22 -4z"/>
<path d="M7623 345 c2 -11 8 -28 12 -38 4 -11 3 -23 -4 -30 -6 -6 -11 -21 -11
-34 0 -13 -4 -23 -10 -23 -19 0 -10 -39 15 -65 14 -14 30 -25 35 -25 4 0 10
-4 12 -8 4 -9 93 -72 103 -72 3 0 21 -11 39 -25 33 -25 35 -25 236 -25 l203 0
-35 28 c-19 15 -58 43 -86 62 -29 19 -55 43 -58 53 -3 10 -11 16 -17 14 -7 -2
-19 4 -27 13 -8 9 -23 19 -32 23 -11 4 -18 17 -18 31 0 22 -17 36 -43 36 -8 0
-7 -3 2 -9 10 -6 10 -10 1 -16 -7 -4 -23 4 -39 19 -15 14 -33 26 -40 26 -7 0
-36 15 -64 34 -67 44 -109 53 -132 30 -17 -17 -18 -17 -32 1 -13 19 -14 19
-10 0z"/>
<path d="M7858 348 c-2 -6 -16 -10 -31 -10 -22 0 -25 -3 -16 -14 13 -16 33
-19 24 -4 -7 11 6 13 29 4 9 -3 16 -12 16 -19 0 -7 7 -16 16 -19 12 -5 15 -2
10 10 -4 11 -2 15 8 11 12 -5 13 -1 7 16 -9 23 -58 42 -63 25z"/>
<path d="M6240 325 c0 -23 18 -34 33 -19 7 7 -14 44 -25 44 -5 0 -8 -11 -8
-25z"/>
<path d="M7550 340 c8 -5 20 -10 25 -10 6 0 3 5 -5 10 -8 5 -19 10 -25 10 -5
0 -3 -5 5 -10z"/>
<path d="M6500 310 c0 -5 5 -10 10 -10 6 0 10 5 10 10 0 6 -4 10 -10 10 -5 0
-10 -4 -10 -10z"/>
<path d="M6540 299 c0 -16 30 -43 38 -34 4 4 1 10 -5 12 -7 3 -13 11 -13 19 0
8 -4 14 -10 14 -5 0 -10 -5 -10 -11z"/>
<path d="M7606 295 c4 -8 8 -15 10 -15 2 0 4 7 4 15 0 8 -4 15 -10 15 -5 0 -7
-7 -4 -15z"/>
<path d="M5788 293 c7 -3 16 -2 19 1 4 3 -2 6 -13 5 -11 0 -14 -3 -6 -6z"/>
<path d="M6090 280 l-95 -6 92 -2 c53 -1 94 2 98 8 3 6 5 9 3 8 -2 -1 -46 -5
-98 -8z"/>
<path d="M6511 274 c0 -11 3 -14 6 -6 3 7 2 16 -1 19 -3 4 -6 -2 -5 -13z"/>
<path d="M5788 273 c7 -3 16 -2 19 1 4 3 -2 6 -13 5 -11 0 -14 -3 -6 -6z"/>
<path d="M7986 265 c4 -8 10 -15 15 -15 4 0 6 7 3 15 -4 8 -10 15 -15 15 -4 0
-6 -7 -3 -15z"/>
<path d="M6240 255 c0 -8 5 -15 10 -15 6 0 10 7 10 15 0 8 -4 15 -10 15 -5 0
-10 -7 -10 -15z"/>
<path d="M7540 250 c0 -5 5 -10 10 -10 6 0 10 5 10 10 0 6 -4 10 -10 10 -5 0
-10 -4 -10 -10z"/>
<path d="M4920 218 c0 -10 -4 -18 -8 -18 -12 0 -13 -48 -2 -55 6 -4 19 -3 30
0 16 5 18 10 10 25 -13 24 -13 50 0 50 6 0 10 -9 10 -20 0 -11 5 -20 10 -20 6
0 10 13 10 28 0 25 -4 29 -30 29 -22 0 -30 -5 -30 -19z"/>
<path d="M5000 236 c0 -2 9 -6 20 -9 11 -3 18 -1 14 4 -5 9 -34 13 -34 5z"/>
<path d="M8026 213 c9 -36 9 -36 44 -36 38 0 45 7 31 30 -8 14 -10 14 -11 3 0
-10 -3 -11 -8 -4 -7 11 -45 34 -57 34 -3 0 -2 -12 1 -27z"/>
<path d="M5180 200 c0 -6 12 -10 28 -10 15 0 51 -3 81 -7 39 -4 52 -3 47 5 -4
7 -17 12 -29 12 -12 0 -46 2 -74 5 -32 3 -53 1 -53 -5z"/>
<path d="M5648 183 c7 -3 16 -2 19 1 4 3 -2 6 -13 5 -11 0 -14 -3 -6 -6z"/>
</g>
</svg>
