<?xml version="1.0" standalone="no"?>
<!DOCTYPE svg PUBLIC "-//W3C//DTD SVG 20010904//EN"
 "http://www.w3.org/TR/2001/REC-SVG-20010904/DTD/svg10.dtd">
<svg version="1.0" xmlns="http://www.w3.org/2000/svg"
 width="300.000000pt" height="300.000000pt" viewBox="0 0 300.000000 300.000000"
 preserveAspectRatio="xMidYMid meet">
<metadata>
Created by potrace 1.11, written by Peter Selinger 2001-2013
</metadata>
<g transform="translate(0.000000,300.000000) scale(0.100000,-0.100000)"
fill="#000000" stroke="none">
<path d="M1294 2985 c-380 -58 -701 -236 -945 -526 -286 -338 -408 -813 -319
-1249 90 -445 379 -833 771 -1035 248 -127 501 -185 763 -172 695 33 1261 518
1407 1207 18 85 23 139 23 280 1 188 -11 278 -59 445 -35 122 -150 351 -228
455 -226 299 -548 504 -912 580 -131 27 -374 35 -501 15z m471 -253 c276 -64
494 -193 683 -406 335 -378 407 -937 179 -1388 -97 -190 -252 -365 -429 -484
-90 -61 -237 -134 -300 -149 l-28 -7 0 151 c0 173 -16 237 -76 297 -39 38 -41
37 64 53 113 17 229 60 309 113 157 106 234 255 252 493 15 183 -16 313 -99
422 l-39 52 15 73 c18 83 13 165 -14 255 -21 69 -33 74 -131 47 -71 -18 -133
-46 -223 -100 l-56 -34 -119 21 c-98 17 -145 20 -283 17 -104 -3 -195 -11
-247 -22 -80 -18 -82 -18 -110 2 -87 62 -265 132 -335 132 -25 0 -29 -6 -48
-66 -23 -75 -27 -207 -9 -279 11 -42 10 -46 -19 -82 -85 -109 -116 -224 -109
-403 9 -210 54 -334 163 -450 93 -98 260 -177 416 -195 84 -10 85 -12 50 -48
-62 -64 -76 -114 -80 -289 -4 -139 -6 -158 -21 -158 -27 0 -180 67 -255 112
-264 155 -478 423 -567 707 -75 244 -77 508 -3 749 117 386 437 711 820 832
198 63 458 76 649 32z"/>
</g>
</svg>
